<svg xmlns="http://www.w3.org/2000/svg" width="665.031" height="170.297" viewBox="-18.003 -15.641 665.031 170.297" xml:space="preserve"><path fill="#D31F39" d="M72.605 85.169c-.009.002-.014-.004-.025-.001-.067.014-.107.068-.144.133-.183.202-.218.502-.227.848-.023.166-.027.33-.004.521.004.035.004.089.004.14v.113c-.016.459-.109 1.26.017 1.697a.656.656 0 0 0 .277.449l-.004.004c-.05.291.781.144.781.144h1.177s.826.05.826-.194c0-.246-.145-1.025.495-1.025h.972c.157.395.235.859.35 1.265.051-.001.122-.011.192-.022 0 .011-.005.018-.005.029l-.028.031c-1.892.146-1.971 1.092-1.971 1.092s-.474 2.523-1.209 3.698c-.738 1.181-.685 1.291-.685 1.291s-.315 0-.473.337c-.084.182-.315.615-.315.615s-.054.059-.529.339c0 0-.102.112-.314.446l4.679.091c.074.722.664 1.293 1.41 1.293s1.338-.577 1.411-1.302l4.573-.082c-.21-.334-.317-.446-.317-.446-.471-.28-.524-.339-.524-.339s-.231-.436-.317-.615c-.159-.337-.471-.337-.471-.337s.049-.11-.686-1.291c-.739-1.175-1.21-3.698-1.21-3.698s-.07-1.065-2.311-1.115l.196-.008c.093.01.182.024.262.039.14-.393.12-.92.337-1.299.807.021 1.438.036 1.502.037a.542.542 0 0 1 .266.307c.042.176.063.375.095.535.005.096.002.182.002.233 0 .244.732.097.732.097h1.418c.929 0 .831-.83.831-.83v-1.758c0-.88.098-1.613-1.125-1.613-1.218 0-3.418.244-4.444.244h-.291c-1.027 0-3.226-.244-4.448-.244-.331-.004-.56.054-.728.151m5.246 2.825c.044.136.24.305.45.414a5.551 5.551 0 0 0-.225.46c-.041-.021-.083-.045-.127-.06-.009-.061-.023-.123-.035-.187.042-.198.007-.485-.083-.629l.02.002zm-.126 0-.012.027c-.005-.002-.01-.011-.019-.013 0-.005 0-.01-.005-.016l.036.002zm-.184.315c.028.123.055.246.096.351-.021.032-.027.071-.015.126a.382.382 0 0 0-.261.18c-.053-.158-.124-.316-.17-.459a1.461 1.461 0 0 0-.019-.078.99.99 0 0 0 .369-.12zM43.963 62.084s-.23-.436-.314-.618c-.159-.336-.475-.336-.475-.336s.053-.111-.684-1.291c-.736-1.177-1.209-3.7-1.209-3.7s-.071-1.068-2.313-1.114c.065-.002.13-.006.195-.01.094.012.187.027.266.039.137-.392.121-.918.338-1.295.806.02 1.436.033 1.499.036a.54.54 0 0 1 .267.303c.041.177.063.377.097.539.002.096 0 .181 0 .233 0 .245.732.098.732.098h1.417c.929 0 .831-.832.831-.832v-1.758c0-.879.098-1.612-1.124-1.612-1.22 0-3.419.243-4.444.243h-.29c-1.026 0-3.226-.243-4.447-.243-.331 0-.561.058-.725.156-.012.001-.017-.006-.031-.004-.066.016-.11.071-.146.138-.179.203-.216.502-.221.845-.025.168-.03.33-.005.52.005.037.005.095.005.149v.095c-.017.458-.112 1.264.014 1.706a.68.68 0 0 0 .275.45l-.002.001c-.049.293.784.146.784.146h1.177s.827.047.827-.195c0-.245-.146-1.026.489-1.026h.975c.156.392.236.86.35 1.264.051-.002.121-.011.193-.022 0 .01-.007.016-.004.027l-.032.035c-1.887.147-1.966 1.089-1.966 1.089s-.473 2.523-1.21 3.7c-.737 1.18-.686 1.291-.686 1.291s-.314 0-.471.336c-.088.182-.316.618-.316.618s-.054.057-.527.335c0 0-.105.113-.315.448l4.674.09c.079.722.669 1.294 1.411 1.294.749 0 1.341-.574 1.415-1.302l4.572-.082c-.21-.335-.315-.448-.315-.448-.477-.279-.531-.336-.531-.336zm-5.369-7.547a.379.379 0 0 0-.262.179c-.057-.159-.123-.316-.167-.457-.008-.022-.014-.054-.019-.076a1 1 0 0 0 .366-.12c.026.125.059.246.095.348-.021.033-.028.072-.013.126zm.092-.762-.018-.012-.004-.016h.035a.168.168 0 0 0-.013.028zm.201.598c.039-.198.006-.485-.087-.625h.019c.045.134.243.305.453.413-.082.157-.161.31-.224.462a.935.935 0 0 0-.128-.061l-.033-.189zm47.725 28.991c.746 0 1.339-.575 1.411-1.302l4.573-.08c-.212-.336-.317-.447-.317-.447-.471-.28-.525-.336-.525-.336s-.23-.438-.317-.619c-.158-.336-.471-.336-.471-.336s.048-.111-.685-1.289c-.74-1.178-1.211-3.699-1.211-3.699s-.069-1.07-2.32-1.113a2.85 2.85 0 0 1 .205-.012c.093.012.182.026.262.038.14-.394.121-.916.34-1.295l1.497.038a.52.52 0 0 1 .268.309c.042.174.063.37.099.529.002.098 0 .184 0 .234 0 .246.731.098.731.098h1.418c.928 0 .83-.829.83-.829v-1.761c0-.879.098-1.612-1.125-1.612-1.22 0-3.418.245-4.445.245h-.292c-1.026 0-3.223-.245-4.445-.245-.331 0-.562.059-.728.157-.009 0-.013-.004-.025-.002-.067.014-.112.069-.146.137-.18.204-.214.501-.224.842a1.81 1.81 0 0 0-.004.521c.004.034.004.088.004.139v.115c-.016.456-.109 1.257.014 1.697a.685.685 0 0 0 .275.449c-.049.295.781.146.781.146h1.179s.825.049.825-.195c0-.243-.142-1.024.495-1.024h.972c.156.394.236.857.35 1.265.051-.001.119-.011.191-.024 0 .013-.005.02-.005.029l-.032.033c-1.886.148-1.963 1.092-1.963 1.092s-.476 2.521-1.21 3.699c-.74 1.178-.686 1.289-.686 1.289s-.314 0-.473.336c-.084.182-.315.619-.315.619s-.053.056-.529.336c0 0-.103.111-.315.447l4.678.09a1.419 1.419 0 0 0 1.41 1.291zm0-10.503c.042.138.24.305.444.412-.076.156-.156.309-.218.461-.043-.022-.084-.045-.128-.06l-.035-.185c.039-.201.007-.487-.084-.629h.021v.001zm-.126 0-.012.029c-.004-.004-.009-.011-.019-.014a.047.047 0 0 0-.005-.016h.036zm-.533.511a.956.956 0 0 1-.017-.077.998.998 0 0 0 .366-.119c.027.123.056.245.097.35-.023.029-.027.074-.017.127a.374.374 0 0 0-.26.177c-.059-.159-.123-.316-.169-.458zM35.529 47.288c-.474-.282-.525-.335-.525-.335s-.23-.437-.317-.62c-.159-.335-.473-.335-.473-.335s.051-.111-.684-1.29c-.737-1.179-1.213-3.7-1.213-3.7s-.064-1.068-2.315-1.115c.065-.002.13-.007.198-.009.094.009.186.026.266.039.138-.392.121-.918.337-1.295.807.02 1.438.034 1.502.035a.549.549 0 0 1 .266.309c.042.174.064.371.096.532.002.096.002.183.002.233 0 .245.732.099.732.099h1.416c.928 0 .833-.831.833-.831v-1.76c0-.877.098-1.611-1.124-1.611-1.222 0-3.418.243-4.447.243h-.29c-1.026 0-3.225-.243-4.445-.243-.333 0-.562.057-.728.155-.011.002-.014-.005-.027-.002-.065.015-.108.068-.143.131-.184.202-.219.504-.223.849-.026.166-.031.33-.007.521.007.036.005.094.005.149v.094c-.017.458-.11 1.266.014 1.707a.693.693 0 0 0 .275.452c-.049.292.781.146.781.146h1.178s.825.048.825-.197c0-.243-.143-1.023.492-1.023h.976c.155.392.235.858.349 1.262.051-.001.121-.01.19-.021 0 .011-.004.017-.002.028l-.035.034c-1.886.148-1.964 1.09-1.964 1.09s-.473 2.521-1.211 3.7c-.738 1.179-.684 1.29-.684 1.29s-.314 0-.474.335c-.086.183-.317.62-.317.62s-.051.054-.524.335c0 0-.107.112-.317.448l4.675.089c.078.723.669 1.292 1.412 1.292.748 0 1.34-.573 1.413-1.301l4.573-.079c-.21-.338-.317-.45-.317-.45zm-5.895-7.887a.392.392 0 0 0-.264.182c-.053-.158-.122-.317-.166-.46a.75.75 0 0 1-.018-.075.992.992 0 0 0 .365-.118c.026.124.059.245.096.348a.147.147 0 0 0-.013.123zm.09-.757c-.005-.004-.011-.009-.019-.012l-.002-.016h.032c-.001.009-.006.017-.011.028zm.201.597c.042-.198.009-.484-.083-.625h.019c.043.135.242.305.45.412-.079.154-.159.308-.222.462a.6.6 0 0 0-.128-.061l-.036-.188zm12.014-1.953c.005.036.005.094.005.149v.094c-.017.458-.113 1.266.014 1.707a.68.68 0 0 0 .274.452c-.051.292.782.146.782.146h1.174s.828.048.828-.197c0-.243-.145-1.023.49-1.023h.975c.156.392.235.858.351 1.262.049-.001.12-.01.192-.021 0 .011-.007.017-.005.028l-.032.034c-1.887.148-1.966 1.09-1.966 1.09s-.473 2.521-1.21 3.7-.686 1.29-.686 1.29-.315 0-.471.335c-.087.183-.32.62-.32.62s-.052.054-.525.335c0 0-.104.112-.314.448l4.673.089a1.426 1.426 0 0 0 1.412 1.292c.749 0 1.34-.573 1.416-1.301l4.571-.079c-.21-.335-.317-.448-.317-.448-.474-.282-.524-.335-.524-.335s-.231-.437-.315-.62C52.252 46 51.935 46 51.935 46s.054-.111-.684-1.29c-.736-1.179-1.209-3.7-1.209-3.7s-.068-1.068-2.316-1.115c.066-.003.128-.007.193-.009.095.009.189.026.271.039.136-.392.119-.918.339-1.295.806.02 1.436.034 1.499.035.13.06.212.172.267.305.041.177.062.375.097.536.002.096 0 .183 0 .233 0 .245.732.099.732.099h1.417c.929 0 .831-.831.831-.831v-1.76c0-.877.098-1.611-1.121-1.611-1.223 0-3.422.243-4.448.243h-.289c-1.026 0-3.225-.243-4.447-.243-.333 0-.562.057-.728.155-.009.002-.013-.005-.028-.002-.063.015-.105.068-.139.131-.185.202-.222.504-.227.849a1.757 1.757 0 0 0-.006.519zm5.642 1.328c.044.135.242.305.45.412-.077.154-.159.308-.222.462a.607.607 0 0 0-.129-.061l-.032-.188c.04-.198.007-.484-.084-.625h.017zm-.122 0c-.003.009-.008.017-.011.028a.186.186 0 0 1-.018-.012l-.005-.016h.034zm-.186.314c.027.124.058.245.095.348-.021.031-.028.072-.014.124a.386.386 0 0 0-.261.182c-.056-.158-.124-.317-.167-.46a.548.548 0 0 1-.019-.075.998.998 0 0 0 .366-.119zm21.615 44.434c.749 0 1.341-.575 1.416-1.302l4.57-.08a3.47 3.47 0 0 0-.315-.447c-.476-.28-.529-.336-.529-.336s-.231-.438-.315-.619c-.159-.336-.474-.336-.474-.336s.054-.111-.686-1.289c-.738-1.178-1.21-3.699-1.21-3.699s-.067-1.07-2.315-1.113c.068-.006.133-.007.201-.012.093.012.185.026.264.038.137-.394.118-.916.34-1.295l1.497.038c.13.059.214.172.269.304.042.177.06.373.095.536.002.096.002.182.002.232 0 .246.732.098.732.098h1.417c.929 0 .831-.829.831-.829v-1.761c0-.879.098-1.612-1.125-1.612-1.221 0-3.42.245-4.447.245h-.29c-1.025 0-3.225-.245-4.443-.245-.334 0-.563.059-.726.157-.015 0-.017-.004-.031-.002-.063.014-.106.066-.142.13-.179.203-.219.503-.224.848a1.773 1.773 0 0 0-.006.521c.006.034.002.088.002.139v.115c-.014.456-.107 1.253.014 1.692a.678.678 0 0 0 .279.453c-.051.295.78.146.78.146h1.174s.829.049.829-.195-.145-1.023.492-1.023h.973c.156.393.235.856.352 1.264.05-.001.122-.011.189-.023 0 .012-.003.019-.003.028l-.035.033c-1.885.149-1.964 1.092-1.964 1.092s-.471 2.521-1.21 3.699c-.735 1.178-.686 1.289-.686 1.289s-.314 0-.474.336c-.083.182-.314.619-.314.619s-.049.056-.524.336c0 0-.107.112-.318.446l4.677.09c.078.726.667 1.294 1.411 1.294zm0-10.503c.044.138.241.306.451.416-.08.152-.161.305-.225.457a.778.778 0 0 0-.127-.06c-.009-.059-.021-.12-.033-.185.042-.198.007-.487-.087-.629h.021v.001zm-.124 0c-.003.011-.008.019-.01.029-.007-.008-.012-.011-.017-.014a.022.022 0 0 1-.007-.016h.034zm-.533.511c-.007-.022-.012-.054-.019-.077a.936.936 0 0 0 .365-.119c.029.123.061.245.099.35-.021.029-.028.074-.013.127a.38.38 0 0 0-.264.177c-.054-.159-.124-.316-.168-.458zm15.247-13.428c.03.026.058.028.093.046.026-.078.004-.034-.093-.046zm-.651-15.25c-.052.01-.128.083-.173.097a.23.23 0 0 0 .226.163l-.092-.011a.656.656 0 0 1 .358.315c.362-.134.348-.304.118-.532-.036-.035.013-.109-.057-.156-.051-.033-.161.031-.21 0-.151-.094-.224-.146-.2-.384a.492.492 0 0 0-.141.042c-.022.196-.034.391.171.466zM80 47.034c-.044.059-.048.217-.039.377a.131.131 0 0 1-.108.051 2.5 2.5 0 0 0-.329-.234c-.063-.025-.121.048-.183.032-.039-.013-.071-.109-.121-.119-.156-.03-.306-.028-.467-.028h.12c-.124-.071-.225-.044-.226.109.06-.013.153.023.216.011.002.252.464.22.655.309-.021.241.119.588.388.617.048.231.159.569.308.728.029-.375-.031-.696-.068-1.026.068-.191.135-.384.102-.601-.022-.126-.056-.466-.248-.226zm-3.057-2.448.03-.001c-.008-.004-.008-.007-.013-.008l-.017.009zm1.274-1.118c.047-.037.118-.049.172-.071h.023c.033.342.526.202.774.228.007-.043.021-.088.026-.136.342.242.565.14.562-.245-.167-.015-.341-.005-.508-.017-.01-.048-.01-.092-.017-.136-.309-.129-.674.044-.469.382a2.084 2.084 0 0 0-.206-.164l-.05-.309c-.159-.037-.303-.041-.452-.125a2.23 2.23 0 0 0-.133.139.65.65 0 0 0 0 .307c.088.033.191.056.293.072-.004.026-.017.046-.015.075zm5.537 13.46c-.005-.174-.1-.305-.271-.258a.724.724 0 0 1-.231.218c.019-.039.023-.127.044-.183-.083-.115-.147-.09-.235-.042l-.138.088a.306.306 0 0 0-.175-.039c-.019.39.196.986.045 1.349a.3.3 0 0 0 .169.013c.02-.219-.002-.445.014-.664.185-.017.118-.134.233-.191.135-.066.258-.06.432-.048.042.238.447.223.65.217.108-.432-.27-.367-.537-.46zm1.815-4.521c.083.059.123.124.18.185-.175-.021-1.268-.419-.641.084-.548-.15-.303.332-.296.579.217-.118.473-.201.722-.158-.076.215.033.215-.245.267.188-.04.374.01.528.065-.049.048-.094.153-.175.215.294-.075.597.074.342.345.105-.054.225-.112.348-.132.041-.074.046-.163-.033-.285.117-.109.281-.131.439-.159-.184-.03-.346-.263-.356-.458-.076.024-.219.028-.276.054.087-.105.212-.302.332-.393a.61.61 0 0 0-.533.117 1.315 1.315 0 0 1-.023-.19c-.049-.024-.147.018-.184-.021-.047-.129-.016-.092-.129-.115zm.856 3.405.329.199a2.271 2.271 0 0 0-.716-.124.406.406 0 0 0 .035.318c.054-.011.103-.024.151-.034-.098.069-.136.194-.036.356-.209-.183-.372-.348-.767-.299.111-.006.203.044.298.061l.01.007c-.016.003-.032-.005-.053 0a.37.37 0 0 0-.052.225c.057-.041.141-.05.194-.079.024.354.528.211.776.238.007-.045.021-.09.028-.141.34.248.564.143.563-.243-.168-.014-.346-.003-.509-.016a1.414 1.414 0 0 1-.015-.136l-.054-.015c.128-.018.287-.039.41-.07-.054-.04-.094-.044-.191-.063.044-.042.112-.104.121-.177a.675.675 0 0 0-.522-.007zm.061.295.019-.091c.035.036.033.055.054.099a.493.493 0 0 0-.073-.008zm-2.274-6.824c-.009-.137-.004-.276-.023-.403-.145.022-.235-.042-.265-.184-.09.079-.216.115-.353.079a.497.497 0 0 1 0-.217c.053 0 .107-.009.164-.003-.238-.19-.516-.047-.438.267-.016-.021.11.064.091.051-.059.023-.049.039-.135.037-.007-.024-.009-.049-.016-.075-.059-.012-.117.002-.176-.007v-.091c-.08.04-.133.035-.085.175.042.005.085.002.124.014.105.298.107.553.191.822.077-.11.034-.308.063-.458.152-.02.143-.038.257-.093.068.065.196.09.268.128.012-.048.041-.086.052-.128.287.13.478.349.818.218.03-.289-.362-.152-.537-.132zm-6.442.159c.004-.042.018-.087.027-.136.338.244.564.142.561-.246-.168-.012-.34-.002-.511-.016a1.482 1.482 0 0 1-.013-.134.517.517 0 0 0-.276-.035c.182-.137.131-.107.361-.178.025-.072.03-.292.014-.357-.065-.023-.119-.076-.179-.101.098.025.205-.015.297-.007a.856.856 0 0 0 0-.377 6.559 6.559 0 0 0-.524-.042c-.084-.046-.162-.035-.264-.038l.133.068c-.112-.028-.275 0-.387.011.02.126-.044.303-.021.427-.061-.049-.082-.011-.122 0-.056-.075-.142-.114-.191-.168.01.082.007.174.018.25.056.007.11.013.168.022.014.203.058.141.137.252.084-.396.521-.14.533-.576-.002.268-.012.549.009.814-.191.034-.317.184-.18.412-.21-.184-.371-.347-.767-.298.111-.006.205.046.301.061l.009.009c-.017 0-.038-.006-.054 0a.353.353 0 0 0-.054.221c.057-.037.141-.049.196-.076.023.36.528.213.779.238zm.526 8.228c-.166-.025-.413-.175-.625-.076-.047-.158-.056-.283-.119-.446.068.005.166-.026.231-.02a.95.95 0 0 0 0-.434c-.231-.064-.472.031-.711.036-.045-.284-.014-.665-.385-.572-.235.058-.327.351-.275.572.063.008.122.014.182.019-.276.596 1.077-.01.925.909-.257-.049-.383.087-.461.283-.016.001-.035 0-.049.004a.69.69 0 0 0 0 .31c.103-.014.151-.002.24-.047l.028.113c.078.017.167.001.242.053.027-.04.007-.117.02-.165.057-.028.127.018.182-.019-.017-.52.529-.108.73-.066-.017-.091.029-.222.017-.312.076-.003.172-.03.246-.021.046-.466-.297-.105-.418-.121zm5.415-11.589a.94.94 0 0 0 0 .366c.077-.048.222-.053.296-.102a.606.606 0 0 0 .279.247c-.042-.3-.097-.521-.575-.511zm-3.715 7.606c-.142.081-.24.273-.263.456-.084.044-.178.046-.284-.009-.031-.262-.343-.372-.51-.174l.136.092c-.134.043-.159.195-.088.329.03-.036.088-.07.114-.096-.007.064.039.185.027.264.094-.019.22.032.31.014-.004.049.017.119.012.17.55-.189.168.376.58.334.033.05-.004.054.042.082.035-.369-.19-.578-.25-.876a.255.255 0 0 0 .122-.088c.102.067.153.033.271.044-.015-.063.024-.156.01-.217.454-.069.001-.768-.229-.325zm-.399-9.624c-.19.037-.384-.059-.571-.034-.087-.113-.245-.115-.266.034.054.005.107.007.164.005-.031.013-.063.016-.088.037l.088-.037a.831.831 0 0 0 .214-.023c.002.031.004.063.009.097.094-.006.203.02.296.009-.009.062.028.15.012.211.24-.034.261.259.567.205.033-.161-.06-.979.287-.388.051.014.035-.018.077-.021.038.138.082.155.216.135.036-.281-1.042-.667-1.005-.23zM76.2 53.569c-.123.103-.063.135-.118.243.164.01.348.025.518.008l.199-.066c-.101-.151-.159-.37-.189-.584.04-.014.083-.028.114-.047.025.357.53.213.778.238.005-.046.019-.089.026-.139.343.246.566.144.562-.246-.168-.012-.343-.003-.509-.015a1.518 1.518 0 0 1-.013-.134c-.311-.132-.677.046-.474.381-.208-.185-.371-.348-.768-.3.113-.006.206.046.298.063l.012.007c-.016.001-.035-.005-.051 0-.026.046-.026.093-.036.137-.125.091-.277.125-.405.165.006-.074-.023-.172-.02-.248a.88.88 0 0 0-.382 0c.13.136-.014.134.24.189-.103-.011-.214.021-.308.009.035.259.266.366.526.339zm6.894-12.77c.197-.321.906-.375 1.26-.263 0-.039.005-.083.009-.123a.572.572 0 0 0 .268-.067h.133c.009-.016.019-.032.026-.049.24.098.284.408.625.303a.466.466 0 0 0 .07-.313c-.138.023-.312-.042-.445-.019.084-.609-.318-.544-.798-.51a.66.66 0 0 1 .01.14c-.241.003-.485.144-.361.378a.333.333 0 0 0-.066.193c-.257-.007-.461.06-.711.085-.005.063-.009.123-.02.184-.139-.143-.271-.146-.449-.184.011.075.044.175.075.247a.802.802 0 0 0 .374-.002zm1.475-.78.053.001c-.002.003 0 .006 0 .008l-.071.056c-.019.003-.036.003-.049.005a.298.298 0 0 1 .067-.07zm.148 2.446c-.174.105.054.455-.368.309l-.014-.077c-.15-.039-.499.013-.348.25.086.14.312.031.445-.008-.06.357.327.357.544.479-.019-.253.051-.356.165-.403.126 0 .255-.004.38-.002a.22.22 0 0 1-.081-.04c.072-.002.146-.005.226-.017a.357.357 0 0 0-.002-.169c-.117.035-.219.068-.322.073-.091-.156-.159-.363-.303-.339-.071-.097-.177-.139-.322-.056zm-.803 2.109c-.061.303.331.27.508.191-.086-.056-.156-.116-.266-.125-.007-.12-.037-.697-.243-.393-.209-.321-.32.04-.53.059.012.062-.023.155-.011.218l-.061.012a.41.41 0 0 0-.002.22c.243.035.314-.047.398-.156.06-.014.157-.002.207-.026zm-.036-.159.084.038a.458.458 0 0 0-.112-.005c.009-.01.02-.022.028-.033zm-3.97 7.703c-.045-.193 0-.376.212-.369-.052-.005-.115-.037-.173-.043.07-.083.07-.138.175-.183.06-.124.116-.248.094-.398-.189.125-.407.253-.591.484-.105-.12-.187-.3-.343-.348-.075.098-.105.059-.195.128-.038-.164-.036-.129-.188-.175.005.053-.012.119-.012.172-.226-.045-.538-.185-.763-.016.117.083.273.065.418.108a.475.475 0 0 0-.101.229c.178.011.374-.016.529.045.163-.341.786.169.938.366zm.398-5.983c-.251-.017-.506 0-.755-.014.039-.325-.152-.194-.261-.264.065.039-.269-.107-.198-.095.019.002-.245-.05-.233-.046-.308-.125-.777-.174-.646.356.109.011.292-.023.412.008 0 .014-.002.028 0 .038.028.005.053.011.079.017.019.552.068.27.39.479.119.081-.032.276.173.299.096.014.258-.217.323-.284-.305-.3.214-.416.393-.141.085-.11.23-.146.372-.139a.478.478 0 0 0-.049-.214zm3.981.456c.012.1.024.206.049.314.132.039.281.015.361-.1.119.691 1.282.24.94-.469.177-.163.137-.309-.078-.414l-.996.199c.393.381.049.615-.276.47zM48.446 77.438c.198-.318.907-.373 1.262-.265 0-.038.005-.079.009-.121a.61.61 0 0 0 .269-.065h.13l.03-.049c.241.096.282.408.623.301a.463.463 0 0 0 .068-.313c-.133.021-.313-.043-.443-.017.086-.611-.32-.545-.798-.515.01.051.01.095.012.142-.242.003-.487.144-.366.378a.382.382 0 0 0-.063.193c-.257-.006-.461.061-.711.086-.005.061-.009.121-.019.185-.14-.144-.275-.146-.448-.185a.93.93 0 0 0 .07.244.756.756 0 0 0 .375.001zm1.476-.784c.019.004.04 0 .054.004v.009l-.073.056-.051.008c.023-.029.044-.057.07-.077zm-4.568 7.018c-.044.059-.049.217-.04.376-.026.03-.054.054-.104.054a2.57 2.57 0 0 0-.33-.233c-.063-.024-.12.047-.183.028-.04-.01-.073-.107-.124-.117-.154-.031-.302-.027-.464-.027h.117c-.122-.068-.224-.044-.229.111.066-.016.157.022.225.011 0 .253.459.22.65.31-.017.238.122.586.387.616.052.229.16.567.311.728.03-.375-.029-.697-.065-1.025.065-.189.136-.382.098-.602-.023-.129-.058-.468-.249-.23zm-.094 5.085c-.043-.192.002-.379.21-.37-.049-.004-.113-.037-.171-.043.068-.082.07-.137.176-.183.06-.124.116-.25.093-.397-.188.129-.406.254-.59.484-.105-.122-.186-.299-.346-.348-.071.1-.1.058-.193.127-.037-.163-.033-.131-.187-.174.005.054-.014.117-.014.172-.224-.047-.539-.184-.76-.017.112.083.271.068.415.107a.487.487 0 0 0-.101.227c.182.015.373-.013.535.048.159-.34.779.171.933.367zm-2.964-7.532c.009-.002.019 0 .028-.002l-.009-.008-.019.01zm3.361 1.546c-.248-.017-.504 0-.753-.017.04-.321-.152-.19-.261-.262.065.041-.268-.104-.199-.097.019.004-.245-.049-.235-.043-.308-.125-.774-.172-.643.356.109.009.293-.022.412.006 0 .015 0 .031.003.038.022.008.051.012.074.018.021.551.07.27.392.481.12.075-.033.272.17.298.101.014.263-.221.327-.283-.309-.304.211-.42.391-.142.086-.112.229-.147.371-.142a.462.462 0 0 0-.049-.211zm-2.01 11.538c-.166-.022-.411-.175-.623-.074-.046-.157-.059-.282-.116-.448.065.008.161-.022.229-.019a.94.94 0 0 0 0-.435c-.229-.067-.474.031-.71.036-.048-.282-.015-.664-.388-.574-.236.061-.325.354-.276.574.063.01.122.013.185.02-.274.596 1.078-.01.926.908-.256-.05-.382.087-.459.282-.018 0-.037 0-.051.004a.676.676 0 0 0 0 .313c.102-.018.15-.002.24-.049.01.037.017.074.025.111.081.018.173.002.245.055.029-.041.007-.117.019-.166.058-.029.128.02.18-.02-.014-.52.529-.109.73-.064-.017-.093.032-.222.018-.313.078-.002.175-.031.25-.021.04-.465-.299-.104-.424-.12zm-.525-8.228c.005-.044.019-.089.026-.138.341.244.567.143.563-.245-.169-.009-.34-.003-.509-.017-.006-.043-.009-.088-.016-.133a.521.521 0 0 0-.273-.037c.18-.136.129-.103.36-.177.025-.071.03-.293.016-.354-.067-.022-.124-.08-.182-.104.098.023.203-.012.296-.004a.734.734 0 0 0 0-.378 6.537 6.537 0 0 0-.522-.043c-.083-.045-.161-.035-.264-.037l.134.067c-.113-.028-.279 0-.388.013.021.125-.044.305-.021.429-.063-.049-.082-.015-.124 0-.053-.074-.14-.117-.188-.171.007.082.005.174.018.25.054.005.11.015.166.022.015.205.062.142.143.252.079-.396.515-.139.529-.577-.001.271-.012.549.009.815-.191.034-.319.185-.179.414-.208-.186-.373-.35-.768-.3.112-.008.206.044.301.062l.009.006c-.016.003-.034-.004-.051 0a.347.347 0 0 0-.056.225c.059-.039.141-.049.197-.076.019.355.524.212.774.236zm44.328-27.59v.004c-.015.002-.03.002-.045.009a.724.724 0 0 0-.054.335c.059-.057.138-.076.196-.116.021.534.525.314.774.354.005-.063.021-.131.028-.205.291.312.497.244.548-.147.135-.025.212-.215.212-.561-.151-.015-.305-.009-.457-.021.156.011.344-.018.466-.005.007-.045.021-.089.025-.138.341.246.567.143.563-.247-.169-.009-.343-.002-.509-.013-.01-.046-.01-.089-.016-.136-.309-.131-.675.046-.469.385-.21-.187-.373-.351-.767-.303.11-.007.202.046.298.063l.009.007c-.016.002-.038-.005-.051 0a.35.35 0 0 0-.054.218.386.386 0 0 0-.088.261.302.302 0 0 0-.105.07c-.151-.178-.314-.299-.609-.246.113-.008.206.071.299.093l.004.004c-.014.003-.03.003-.044.008a.712.712 0 0 0-.054.304.545.545 0 0 0-.401-.07c.108-.006.202.07.301.093zm1.151-.354c.014.002.028.007.042.007h-.042v-.007zm-.859.25c.01.148.054.233.12.288.009.054.028.113.051.176-.109-.147-.208-.284-.336-.369.054-.039.117-.063.165-.095zM48.14 81.58c.159.061.311.195.359.316.362-.137.345-.305.119-.535-.038-.033.012-.106-.059-.154-.051-.033-.16.029-.212 0-.149-.093-.222-.146-.198-.38a.431.431 0 0 0-.143.04c-.021.193-.033.39.173.466-.049.01-.13.081-.175.097.036.1.114.16.229.163l-.093-.013zm-3.19-.879c-.191.037-.387-.057-.573-.032h.001c-.086-.114-.244-.117-.265.032.053.005.107.007.161.005-.028.013-.059.017-.089.037l.094-.037a.877.877 0 0 0 .212-.022c.002.029.004.063.009.096.093-.004.203.021.297.012-.012.061.025.148.011.21.24-.033.263.258.567.203.032-.159-.063-.976.285-.388.051.017.035-.016.079-.021.036.142.082.157.215.134.036-.282-1.041-.664-1.004-.229zm-1.381-.596c.049-.035.12-.049.173-.068h.023c.033.343.527.199.775.225.004-.041.021-.087.025-.136.342.244.566.144.564-.245-.168-.01-.342-.003-.511-.016-.007-.043-.009-.088-.017-.135-.308-.131-.673.047-.468.379a4.197 4.197 0 0 0-.205-.161l-.052-.312c-.16-.037-.304-.039-.455-.123a2.476 2.476 0 0 0-.131.137.69.69 0 0 0-.002.31c.091.031.191.056.296.072-.001.025-.017.045-.015.073zm1.777 10.22c-.142.084-.235.272-.263.456-.082.044-.177.046-.282-.012-.031-.262-.343-.369-.512-.174l.138.094c-.133.045-.158.195-.091.328.036-.035.091-.069.119-.099-.01.065.035.188.025.267.091-.017.217.032.308.013-.005.05.019.122.014.172.55-.188.168.374.578.332.033.051-.001.056.045.084.032-.368-.191-.579-.25-.875a.259.259 0 0 0 .124-.093c.101.072.152.035.269.047-.011-.063.025-.156.011-.215.454-.069.001-.768-.233-.325zm-3.194.066c-.101-.147-.161-.367-.189-.582.039-.013.083-.027.117-.045.021.354.527.211.776.235.004-.046.019-.089.027-.138.341.244.564.142.562-.247-.167-.009-.344-.003-.508-.013a3.059 3.059 0 0 1-.017-.138c-.307-.132-.673.048-.471.384-.208-.186-.373-.349-.764-.301.109-.009.203.045.298.061l.009.008c-.019.001-.037-.004-.053 0-.024.049-.024.093-.033.139-.124.094-.278.126-.406.166.008-.072-.023-.173-.016-.25a.932.932 0 0 0-.383.001c.128.138-.013.136.238.19-.1-.012-.213.02-.307.01.033.258.264.365.52.333-.118.108-.058.136-.116.244.166.012.352.026.52.011l.196-.068zm9.876 2.53c-.007-.048-.009-.091-.016-.139-.016-.005-.035-.009-.054-.017.128-.016.29-.035.411-.065-.051-.041-.093-.042-.189-.063.044-.041.112-.104.123-.177a.685.685 0 0 0-.526-.012l.332.2c-.23-.07-.47-.127-.716-.125a.427.427 0 0 0 .032.318c.058-.012.105-.025.151-.033-.096.071-.133.192-.033.356-.208-.185-.373-.351-.768-.3.113-.008.206.046.302.061l.006.008c-.017.004-.034-.004-.051.004a.329.329 0 0 0-.054.22c.057-.038.138-.05.194-.077.024.355.527.21.777.236.007-.043.021-.088.025-.137.343.243.566.141.562-.246-.165-.011-.34-.001-.508-.012zm-.189-.175a.72.72 0 0 1 .021-.092c.032.035.03.053.054.102a.287.287 0 0 0-.075-.01zm1.16 2.046.003.002c-.016.004-.03.004-.045.009a.776.776 0 0 0-.052.307.544.544 0 0 0-.404-.07c.109-.01.206.066.298.091l.005.006c-.016.003-.032.003-.046.009a.747.747 0 0 0-.056.336c.058-.06.14-.076.195-.119.024.535.527.314.777.355.007-.066.021-.132.028-.205.29.312.497.245.546-.146.138-.026.216-.215.212-.561-.149-.018-.305-.01-.455-.021.156.011.343-.021.464-.007.007-.043.021-.086.028-.137.34.244.564.144.562-.246-.168-.013-.34-.002-.509-.016-.008-.045-.011-.089-.016-.135-.31-.133-.676.046-.471.382-.208-.185-.374-.349-.767-.299.108-.011.205.045.298.06l.009.008c-.016.004-.032-.002-.049 0a.339.339 0 0 0-.054.223c-.058.06-.088.148-.088.261a.295.295 0 0 0-.107.067c-.149-.178-.315-.299-.607-.244.112-.011.207.066.301.09zm.953-.019c.017.004.028.009.045.01l-.045-.001v-.009zm-.735.54a.744.744 0 0 0 .049.179c-.108-.15-.209-.285-.337-.368.055-.044.122-.066.171-.1.004.15.052.234.117.289zm-3.652-9.391c-.009-.134-.007-.277-.023-.404-.144.023-.233-.041-.266-.184a.374.374 0 0 1-.352.08.464.464 0 0 1 0-.216c.054 0 .104-.011.16-.005-.237-.189-.513-.045-.434.266-.016-.02.11.066.092.053-.056.024-.051.04-.138.038l-.014-.075c-.058-.012-.116.002-.177-.007v-.092c-.079.04-.133.035-.084.176.042.007.084 0 .122.015.107.299.108.555.192.822.078-.111.036-.308.062-.459.153-.021.143-.039.258-.091.065.062.196.089.266.126.012-.048.04-.085.051-.13.29.132.478.349.822.222.03-.293-.362-.157-.537-.135zm-.457 7.644c-.004-.174-.101-.305-.273-.262a.667.667 0 0 1-.231.219c.019-.037.023-.127.044-.182-.084-.111-.149-.089-.235-.044l-.138.091a.286.286 0 0 0-.175-.037c-.018.388.198.983.042 1.349a.337.337 0 0 0 .173.013c.019-.22-.002-.443.014-.665.184-.019.119-.134.232-.19.133-.068.259-.059.433-.047.039.235.447.225.65.219.108-.436-.269-.371-.536-.464zm-.277 3.015c.031.028.059.032.094.049.025-.082.003-.034-.094-.049zm.809-13.351c.012.098.023.205.049.313.132.035.279.015.362-.099.118.691 1.283.24.939-.473.177-.162.136-.309-.076-.412l-.997.196c.39.386.047.618-.277.475zm.432-4.125c-.175.102.053.453-.371.308a.863.863 0 0 0-.012-.076c-.15-.039-.499.013-.347.25.088.144.313.032.442-.008-.059.356.326.356.546.479-.018-.254.052-.357.166-.404.126 0 .254-.004.379-.004a.191.191 0 0 1-.082-.037 2.99 2.99 0 0 0 .227-.016.415.415 0 0 0-.002-.172c-.117.035-.222.068-.319.073-.096-.157-.162-.362-.308-.341-.07-.094-.175-.136-.319-.052zm1.1 10.963c-.051.043-.095.15-.177.213.297-.077.594.074.344.346.104-.055.223-.111.344-.131.044-.075.049-.165-.03-.287.117-.111.28-.13.438-.156-.184-.031-.345-.265-.357-.46-.075.022-.217.03-.275.056.089-.108.215-.303.334-.395a.612.612 0 0 0-.535.118.83.83 0 0 1-.023-.19c-.048-.023-.145.019-.186-.021-.044-.129-.012-.093-.124-.114.08.059.121.12.175.186-.17-.021-1.269-.422-.64.082-.547-.148-.303.332-.296.58.218-.121.473-.203.726-.16-.082.218.031.216-.248.267.189-.038.371.012.53.066zm-1.397-8.666c-.086-.053-.156-.115-.263-.125-.01-.118-.04-.697-.247-.393-.21-.322-.317.039-.524.059.007.063-.026.156-.012.219-.023.006-.042.008-.065.012a.447.447 0 0 0 0 .221c.24.035.313-.045.4-.156.054-.014.154-.002.204-.025-.062.302.33.268.507.188zm-.541-.347.077.036c-.03-.006-.07-.005-.109-.005.014-.009.018-.02.032-.031zm-.168 1.662a.808.808 0 0 0 0 .366c.075-.045.217-.052.296-.103a.61.61 0 0 0 .277.25c-.041-.298-.1-.521-.573-.513zm48.844-53.01-.28-.552h-.618c-.019 0-8.034 0-18.414-.67-4.974-.318-9.367-2.342-12.507-4.301a33.675 33.675 0 0 1-3.688-2.65c-.857-.711-1.298-1.154-1.302-1.154l-.294-.296h-1.052l-.291.296s-.443.443-1.301 1.154c-2.575 2.143-8.738 6.483-16.196 6.951-10.382.67-18.398.667-18.414.67h-.621l-.278.552c-.046.094-4.932 9.821-4.934 24.805 0 4.797.504 10.133 1.83 15.859 7.57 32.475 39.475 48.388 39.553 48.456l.208.104h.922l.208-.1c.08-.064 32.992-15.971 40.571-48.461a70.415 70.415 0 0 0 1.828-15.856c0-14.983-4.885-24.713-4.93-24.807zM56.167 92.773c.151.314-.04.594-.361.574-.068.301-.621.508-.632.049-.044.019-.124.031-.18.056a3.327 3.327 0 0 1-.009-.591 1.826 1.826 0 0 1-.228-.225c-.153.141-.376.18-.529.072.078.068.074.127.121.184-.294.023-.598-.002-.891.028.196.048.232.185.338.332-.189.147-.405.058-.574.173-.151.104-.033.266-.293.377a.168.168 0 0 1 .107.064.566.566 0 0 0-.093.281c.146-.148.4-.273.574-.268l.021.174c.293-.18.727-.518.967-.111a.458.458 0 0 0-.177.209c.199-.077.413-.105.646-.06-.057.058-.134.197-.193.251.169-.01.371-.054.528-.115.081.189.127.293-.045.461.203.012.408-.057.602-.114.068.19.084.237-.049.405.311.061.499.287.396.61-.111-.063-.278-.051-.39-.123.035.229.012.454-.179.416.567.427.175.743-.354.834.802.335-.188.536-.543.492-.302-.037-.889-.301-1.021-.621a.587.587 0 0 0-.257.312c.14.016.091.054.247.024-.233.063-.513.136-.523.394.08.024.117.061.188.098-.167.111-.226.26-.138.452-.238.112-.485.157-.737.21-.007-.104-.098-.159-.079-.309-.084.029-.188.008-.27.033-.007-.051.005-.146-.022-.188-.106.062-.235.095-.331.234-.049.002-1.849.498-1.063-.026-.289.133-.478-.128-.347-.414-.164.004-.36-.037-.522-.022.276-.509-.348-.459-.686-.484-.164-.172-.019-.105-.231-.153a.303.303 0 0 1 .127-.116c-.042-.013-.1.014-.147.008-.11.12-.23.213-.368.316a2.03 2.03 0 0 1-.471-.368c.005.216.005.433.03.64.077.59-.115 1.217.273 1.649.399.44.884.604 1.318 1.024.475.468 1.051.619 1.511 1.113-.296-.015-.463-.123-.725-.189-.283-.073-.575-.012-.846-.079-.646-.161-.66-.718-1.391-.66.012.634.592.738.833 1.199-.287-.304-.942-.142-1.325-.416-.484-.347-.694-.667-1.338-.658-.608.011-.999.205-1.508.511-.359.213-1.021.631-1.372.204.277-.282.719-.329.966-.698-.482-.117-.747.219-1.173.318-.39.094-.93-.005-1.236-.13.399-.308 1.265-.351 1.733-.535a3.34 3.34 0 0 0 .825-.448c.229-.174.229-.41.592-.492.218-.907.166-1.952.149-2.947-.239-.029-.512-.02-.654.033-.042.084-.104.22-.143.32.168.064.221.151.401.166-.091.256-.741.666-.833.137a2.31 2.31 0 0 0-.473-.123 3.255 3.255 0 0 0-.188.31c.059.013.125.021.183.024-.183.147-.429.238-.621.395-.084.071-.252.438-.417.491-.415.133-.279-.073-.547-.205-.172-.089-.396-.422-.404.056.065.012.124.006.187.021-.04.637-1.469.413-1.845.656-.025-.043-.014-.123-.021-.172-.146-.031-.176-.082-.275-.148.117-.069.213-.178.388-.193-.077.01-.212-.023-.299-.023-.007-.049.005-.146-.021-.189-.184.039-.245-.033-.409.105-.006-.199-.775-.698-.974-.881.212-.289.599-.022.893-.004-.236-.176-.597-.33-.667-.601a.829.829 0 0 1 .533.119c.005-.063.021-.134.021-.196.172.107.389.227.602.266.036-.051.141-.276.156-.338-.199-.225-.541-.338-.832-.399.001-.007.051-.313.074-.418.311-.045.663-.033.907.185.38-.335.539.25.989.221.828-.053.29-.514-.208-.623.324-.188.667-.207.999-.359-.177-.188-.462-.275-.674-.205-.073-.247-.352-.361-.667-.388.317.353-.008.63-.379.383.035-.065.053-.133.107-.201-.222.099-.478.188-.726.136h-.005c.002-.041.017-.082.029-.123a3.26 3.26 0 0 1-.788-.153 1.428 1.428 0 0 1-.002-.187c.084-.006.17-.016.254-.023-.22-.086-.472-.147-.532-.389.035.002.14-.004.179-.011-.318-.024-.888-.26-.515-.616.033.022.07.086.107.106.049-.253-.091-.487-.115-.731.061.021.126.039.192.058 0-.604-.294-.86-.047-1.509.19.088.361.266.424.471.311-.174.623-.166.534.275.383.022.783.022 1.164 0-.072-.153.013-.184-.163-.326.31-.062.434.184.69.199.224.016.445-.172.713-.154-.004-.355-.387-.391-.678-.273.083-.085.123-.229.198-.32-.142.015-.315.01-.458.058.282-.074.166-.06.248-.269-.165.014-.35-.033-.518-.008.025-.01.037-.027.032-.058a1.55 1.55 0 0 0-.61.067c.039.025.065.08.13.115-.236-.056-.631-.101-.684-.447-.258.082-.606.051-.891.032.004-.077-.027-.18-.02-.258-.296.038-.458-.183-.586-.431.029.005.057.007.084.01-.273-.114-.447-.38-.107-.534.04.054.161.136.191.181.016-.233-.013-.475.079-.68.061.021.119.033.182.057a.61.61 0 0 1 .376-.625c.039.056.039.066.079.138.105-.079.192-.066.282-.19.435.422.416.172.884.102.296-.043.592.173.942.095-.042.049-.087.103-.122.142.17.215.462.16.674-.008-.051.067-.07.146-.107.206.198.031.853.047.897-.231.014-.08-.048-.138-.142-.18-.258.098-.506.19-.823.137.084-.114.028-.164.229-.242-.024 0-.047-.01-.068-.014-.004 0-.012 0-.016-.004-.187-.008-.378-.006-.564-.02.027-.126.216-.252.426-.324a.447.447 0 0 1 .301-.075l.007-.004c-.107-.108-.09-.204-.014-.278-.028-.002-.044-.017-.082-.011.022-.008.17-.073.182-.073-.146-.086-.324-.242-.331-.457.079.004.179-.024.256-.019.054-.437-.563-.297-.759-.131.063.032.153.155.209.188a.376.376 0 0 0-.121.084c.012.039.063.174.054.217-.114.05-.206.07-.3.095.014.017.032.024.043.045-.048.082-.053.028-.123.076.111.261-.08.434-.266.396-.103.297-.667.338-.606-.125-.052.063-.205.141-.251.194.026-.222-.038-.33-.138-.496.014-.022.042-.047.065-.071-.025-.139-.084-.139-.122-.238.046-.043.078-.024.115-.067-.708-.128-.537-.698.059-.442-.038-.103-.015-.297-.047-.396.063.024.189.024.254.051a2.102 2.102 0 0 1-.111-.537c.028-.002.046.007.058.034.077-.453.004-.51.395-.663.142-.057.303.065.436.052.13-.021.314-.199.469-.232-.017.033-.04.125-.067.182.114.146.279.202.466.191a.442.442 0 0 0-.033-.322c.063-.008.126-.014.186-.02-.048-.061-.095-.244-.19-.321.224-.065.476-.126.687-.041-.06.022.088-.144.065-.119.054.054.15.103.206.14a.37.37 0 0 1 .086-.08c-.131-.041-.284-.1-.354-.104.201.002.417-.02.606-.096.007-.068.026-.123.036-.187.326-.039.888-.188.394-.434-.227-.108-.77.059-.648.157-.199.203-1.208.199-1.54.006-.338.187-.69-.144-.576-.545-.187.045-.445-.09-.422-.34.011-.15.31-.287.419-.424.143.147.263.129.473.105-.049-.109-.008-.202-.107-.324.166.014.283-.025.437.047-.231-.148-.416-.354-.592-.563.212-.033.487.113.743.08-.038-.319.252-.461.434-.365-.018-.032-.039-.072-.071-.113.252-.229.499-.006.704-.262.051.041.115.123.168.201.308.022.616.1.918.051-.166-.085-.38-.197-.403-.391.254 0 .432-.176.534-.41-.196-.184-.458-.238-.471.098a1.332 1.332 0 0 1-.271-.195c.042-.229.049-.19-.138-.322a.116.116 0 0 0-.004.103c-.255-.153-.513-.332-.812-.386.107.002.159-.04.311-.01 0-.102.069-.189.079-.265.163.05.292.048.464.066-.096-.041-.157-.111-.245-.159-.035-.171.042-.124-.088-.327a.498.498 0 0 0 .206-.203c0-.043-.01-.084.002-.132.012.051-.15-.092-.14-.079a1.66 1.66 0 0 0 .127-.125c-.326.021-.573-.214-.138-.291-1.004.108.698-.807.385-.096.018-.039.062-.125.067-.103.041.032.084.082.126.127.313-.062.551-.058.938.069-.03.038-.08.084-.107.125.186.093 1.036.147.974-.271-.061-.393-1.021.166-1.115-.48.339-.212.829 0 .94-.499-.172-.036-.331-.163-.455-.239.345-.057.576-.389.943-.291-.028-.029-.077-.063-.107-.09.082-.087.135-.16.172-.232.262.037.385.133.707.129.279-.01.784 0 .683-.391a.7.7 0 0 0-.312 0c-.004.059-.008.119-.018.18-.262.051-.606.078-.6-.25-.067.031-.191.029-.245.053.017-.093-.033-.225-.019-.314-.06-.008-.107.008-.156.02a1.78 1.78 0 0 1-.025-.408c-.264.096-.622.01-.529-.35a.976.976 0 0 0 .185.055c-.11-.538.464-.47.503-.951.406.055.661.203.947-.195.004.067.037.185.037.232.075-.048.163-.074.236-.107.108.111.165.135.271.127a.189.189 0 0 1-.126.112c-.199.069-.401-.05-.616-.099a.46.46 0 0 0 .038.244c.231-.004.366.191.566.104.045.007.195.052.267.065.009.042-.017.098-.021.137.084-.031.098.021.186-.063.007.138.082.141.108.203a.426.426 0 0 0 .065-.336c.513.241.45-.621-.238-.539a.293.293 0 0 0-.14.045c-.132-.207-.478-.193-.725-.271.424.017.993-.032 1.084-.513.151-.812-.884-.399-.9-.553a2.805 2.805 0 0 1 0-.389c.143.011.326-.046.467-.027a1.926 1.926 0 0 0-.074-.321c-.402-.046-.246-.379-.003-.434-.043-.373.271-.465.548-.37a1.017 1.017 0 0 1-.32-.231c.138.023.326-.036.468-.025-.009-.342.015-1.263.369-1.494.245-.157.527.003.586.303.063.306-.393.451.034.715-.071.054-.125.165-.219.216.268.067.196.131.233.331.28.086.616.023.865.143-.043.064-.067.201-.123.267.382.037.791.086 1.163.093-.07.244-.284.363-.528.348.62.334.006.575-.288.693.388.427-.123.524-.479.483a.404.404 0 0 0-.056.264c-.158.169.056.331.175.539-.066.012-.126.016-.192.025.059.461.543.221.881.275a.425.425 0 0 1-.069.196c.016.081.106.058.121.134-.143.503 1.098.286 1.403.436-.063.039-.195.222-.279.265a.656.656 0 0 0 .155.134c-.022.049-.079.082-.072.139.422.121.518.4.123.623.068.121.229.279.338.338.371-.729 1.471.19.441.438.007.074-.024.175-.021.254-.205-.01-.2.083-.324.13.173.132.154.239.187.419-.303.033-.722.568-.693-.045a.894.894 0 0 0-.392 0c-.019.367-.196.618-.42.879.455-.146.783.02.484.483.122.032.237.052.348.078-.103.069-.139.198-.039.366-.207-.188-.373-.351-.768-.301.112-.009.206.043.301.062l.01.007c-.017.001-.035-.005-.052 0a.322.322 0 0 0-.053.225c.056-.041.138-.05.194-.08.023.355.526.213.776.237.006-.046.021-.089.025-.139.341.245.567.143.563-.245-.169-.01-.343-.003-.509-.014-.007-.049-.009-.09-.016-.137a.483.483 0 0 0-.114-.035l.032-.069c.487-.068.588-.513 1.15-.42-.033.214.017.284-.243.337.243-.053.485-.115.665.052l-.182.085c.105.012.198.077.313.078.028.549.811.287.767.727-.03.281-.603.475-.797.381.35.73-.789.412-1.112.332.116.035.151.09.25.146-.049.038-.105.103-.164.166.007.011.019.017.029.028-.01-.004-.035 0-.057 0-.009.012-.018.019-.028.029.28.043.352.346.497.539-.172.075-.368.01-.548-.09 0-.005.003-.005.003-.01l-.026-.001a2.374 2.374 0 0 1-.159-.101.394.394 0 0 1 .117.098c-.146-.006-.297 0-.441-.014-.01-.045-.012-.086-.017-.136-.31-.129-.674.05-.474.384-.205-.184-.371-.35-.764-.299.109-.009.206.043.298.059l.01.01c-.017.005-.035-.004-.051.001a.357.357 0 0 0-.054.224c.056-.041.138-.051.193-.078.023.354.53.209.777.236.007-.044.021-.088.027-.139.229.168.4.162.488.025.026.008.049.01.071.019.202-.007.393.012.375.226.229.02.302.174.24.4-.198.07-.401.097-.588.005.147.076.227.233.318.338-.367.241-.703-.196-.958.211.211-.028.27.086.417.149a.545.545 0 0 0-.206.611c.331.021.742.071 1.015-.004.01-.063.014-.121.023-.185.29-.017.615-.076.831.129-.119.119-.137.224-.275.289-.03.03-.013.144-.021.185-.056.004-.13-.002-.182.006.259.016.484.065.452.34-.093.019-.149.066-.24.078.147.035.202.154.318.211-.078.41-.618.261-.88.291a.298.298 0 0 0 .1.277c-.12.018-.289.08-.423.067.077.019.157.046.233.067-.114.157-.394.248-.327.527.079-.007.177.023.254.02-.021.07 0 .183-.033.273a.46.46 0 0 0 .38.051c.014-.058-.005-.111.006-.168.448.141 1.088-.438 1.588-.009-.198.124-.45.099-.611.242l.261.026c-.072.082-.089.191-.266.266.266.294.576-.059.877.139-.056.031-.148.102-.181.123.299-.004.748-.053.525.342-.17.312-.492.158-.732.347.032.038.094.063.122.104-.313.552-.602.027-.856-.051-.285-.091-.728-.037-.926.296.083.021.124.057.194.083-.065.063-.128.269-.191.331.017.033.124.189.145.214.139-.144.323-.272.53-.255-.072.098-.086.227-.231.322.227-.049.395-.008.424.197.153-.233.399-.313.634-.196-.002-.318.344-.445.572-.222.091-.267.751-.68.814-.194-.094.014-.164.058-.248.083.133.01.196.056.32.084-.112.037-.301.191-.401.242.235.115.093.094.189.283-.164.015-.309.094-.468.094.335.054.405.396.326.734-.184.127-.303.344-.533.44-.437.187-.537-.259-.667-.222-.343.093-.077.379-.235.52-.084.075-.188.094-.299.1.031.023.052.051.084.066-.042.191-.191.285-.406.298.015.041.075.149.136.267.017.002.035 0 .051.004-.012.011-.023.022-.035.031l.059.127c.216-.052.443-.067.547.084.144-.261.807-.453 1.106-.446-.128.067-.21.187-.325.27.229-.049.447-.075.648.011-.131.054-.29.205-.39.246.068.023.136.062.199.082-.072.047-.135.164-.247.213.146-.013.232.063.38.073-.035.155.033.25-.052.39.11.015.201.104.329.097.005.129.072.159.096.241.184-.156.41-.316.665-.311.022.051.013.135.021.188.012-.005.196-.03.198-.03.3.347.06.986-.407.727zm-4.102-11.566-.096.012a.675.675 0 0 0 .023-.152c.024.042.045.089.073.14zm7.934-15.358-39.322-.145a67.931 67.931 0 0 1-.942-11.191c0-7.273 1.189-13.268 2.374-17.436.849-2.985 1.688-5.002 2.094-5.911 2.113-.018 9.182-.112 17.896-.671 8.79-.591 15.567-5.846 17.901-7.883l-.001 43.237zm12.483-13.57c.042.053.158.136.191.179.016-.232-.015-.475.079-.677.063.02.119.033.182.054a.622.622 0 0 1 .375-.625c.04.057.04.066.08.14.107-.082.191-.068.282-.193.434.419.415.171.883.104.299-.044.593.17.945.092-.044.046-.086.1-.124.142.172.215.461.159.674-.009-.049.065-.072.146-.105.206.196.031.851.05.896-.233.012-.078-.049-.133-.142-.177-.258.097-.508.191-.823.137.084-.115.028-.168.229-.243-.021 0-.044-.008-.07-.015l-.013-.001c-.188-.01-.379-.009-.565-.021.028-.129.217-.25.427-.324a.44.44 0 0 1 .303-.077l.005-.001c-.108-.11-.091-.206-.014-.279-.028-.004-.045-.015-.08-.011.021-.009.167-.073.182-.073-.147-.087-.324-.246-.333-.459.08.005.178-.025.257-.019.054-.435-.561-.293-.76-.128.062.031.155.155.211.189a.372.372 0 0 0-.125.084c.017.038.064.175.056.217-.115.049-.206.07-.301.096.016.015.032.025.044.043-.049.083-.054.03-.126.074.117.264-.077.436-.261.398-.105.296-.669.334-.606-.126-.054.063-.206.143-.255.195.026-.22-.034-.33-.136-.493.016-.025.044-.049.065-.075-.026-.136-.084-.136-.124-.24.049-.039.08-.024.117-.065-.709-.129-.537-.698.058-.444-.037-.101-.01-.296-.046-.396.063.025.191.025.254.051a2.046 2.046 0 0 1-.112-.536c.028-.004.047.008.059.034.077-.455.004-.508.396-.664.138-.056.304.066.434.049s.315-.197.469-.231c-.017.034-.041.126-.066.182.112.149.278.203.465.191a.425.425 0 0 0-.033-.321c.063-.01.126-.013.186-.021-.048-.059-.096-.243-.191-.322.224-.063.476-.126.69-.042-.063.024.086-.142.063-.119.056.059.152.101.206.14a.424.424 0 0 1 .087-.08c-.131-.042-.284-.101-.356-.104.2.002.42-.02.608-.099.005-.064.024-.122.033-.183.329-.038.891-.19.392-.431-.224-.111-.764.058-.646.155-.198.203-1.206.198-1.537.007-.338.187-.692-.144-.578-.545-.186.044-.445-.088-.424-.341.017-.15.31-.288.422-.422.142.15.267.127.476.105-.049-.11-.009-.206-.107-.324.163.012.28-.023.437.047-.231-.149-.418-.355-.595-.565.213-.034.485.114.747.081-.04-.317.249-.459.429-.364a.702.702 0 0 0-.07-.113c.252-.23.499-.007.704-.264a.946.946 0 0 1 .166.206c.31.019.615.096.92.046-.165-.084-.382-.196-.403-.389.253 0 .431-.173.536-.411-.198-.182-.462-.237-.476.1a1.223 1.223 0 0 1-.267-.201c.041-.229.048-.192-.138-.321a.143.143 0 0 0-.005.104c-.252-.157-.51-.333-.809-.387.107.002.157-.038.311-.01-.002-.1.067-.189.074-.262.166.048.292.044.467.064-.096-.042-.156-.111-.245-.158-.036-.17.044-.124-.088-.327.1-.05.158-.124.203-.202.002-.045-.007-.086.007-.133.012.051-.152-.091-.14-.08.008-.007.119-.114.126-.125-.329.023-.574-.209-.138-.289-1.007.106.697-.807.385-.096.018-.04.063-.128.068-.102.039.032.084.081.128.128.307-.064.545-.059.934.068-.028.039-.078.084-.107.125.187.093 1.036.147.973-.267-.055-.395-1.017.165-1.112-.483.34-.212.828 0 .938-.499-.171-.038-.328-.163-.45-.24.343-.056.574-.387.938-.289-.024-.033-.078-.064-.104-.091a.881.881 0 0 0 .169-.233c.267.036.387.134.709.126.282-.007.783 0 .683-.387a.667.667 0 0 0-.314 0 .919.919 0 0 1-.017.179c-.262.053-.605.08-.598-.249-.067.03-.192.029-.246.051.016-.091-.033-.221-.021-.314a.34.34 0 0 0-.152.021 1.756 1.756 0 0 1-.025-.411c-.269.096-.625.01-.532-.348a.998.998 0 0 0 .184.052c-.111-.539.464-.466.506-.949.406.054.66.203.945-.196.004.067.037.183.037.233.074-.049.163-.075.237-.109.105.114.162.134.269.13a.2.2 0 0 1-.126.109c-.198.072-.399-.05-.612-.098a.481.481 0 0 0 .033.247c.231-.008.369.189.567.103.044.006.191.052.267.066.006.041-.015.097-.021.138.083-.034.1.018.186-.066.01.14.081.143.107.207a.418.418 0 0 0 .066-.337c.513.243.447-.623-.238-.54a.318.318 0 0 0-.14.045c-.131-.206-.476-.194-.725-.271.424.018.993-.034 1.084-.513.152-.809-.885-.397-.9-.551a2.127 2.127 0 0 1 0-.391c.14.012.326-.047.468-.024a2.022 2.022 0 0 0-.075-.322c-.405-.046-.244-.383-.003-.434-.044-.373.27-.466.547-.371a1.024 1.024 0 0 1-.319-.231c.138.026.324-.033.467-.022-.007-.344.016-1.265.371-1.495.245-.159.526.002.584.3.064.309-.392.453.038.719-.077.052-.128.162-.221.215.266.067.199.13.233.328.278.09.616.025.865.145-.042.063-.067.198-.124.269.383.034.792.085 1.167.092-.073.243-.288.36-.529.348.618.334.007.574-.29.692.387.429-.122.525-.479.483a.405.405 0 0 0-.061.265c-.155.169.061.333.181.54-.07.009-.129.014-.194.024.059.46.543.22.881.276-.013.094-.023.107-.067.198.014.079.107.059.118.134-.141.5 1.102.283 1.405.434-.058.04-.195.222-.28.263a.722.722 0 0 0 .153.136c-.021.049-.074.082-.069.14.421.117.517.398.123.621.068.121.229.277.339.337.373-.731 1.471.191.44.437.007.076-.021.176-.019.253-.208-.008-.203.084-.325.131.17.13.151.238.187.42-.304.033-.723.566-.693-.047a.855.855 0 0 0-.396 0c-.014.37-.19.618-.417.88.452-.148.784.018.488.482.115.032.233.054.347.08-.103.07-.143.198-.043.363-.207-.184-.371-.347-.764-.299.109-.008.203.045.299.061l.009.008c-.016 0-.034-.005-.051 0a.35.35 0 0 0-.054.224c.056-.039.139-.05.195-.077.021.354.525.21.775.235.006-.043.021-.087.025-.137.34.246.566.142.562-.247-.165-.01-.341-.003-.51-.015-.007-.046-.007-.086-.015-.135-.037-.015-.077-.025-.111-.034.008-.021.018-.041.027-.073.487-.068.59-.511 1.154-.417-.034.213.014.284-.244.334.244-.051.481-.114.664.054-.056.026-.126.054-.183.085.108.011.196.076.315.078.024.546.812.288.767.726-.032.279-.606.472-.797.38.347.732-.79.414-1.112.332.115.037.148.09.249.147-.049.035-.105.101-.165.164.009.011.021.017.028.028-.01-.002-.035 0-.056 0l-.028.03c.28.042.354.345.497.538-.172.077-.369.012-.55-.087l.002-.009c-.007-.004-.014-.004-.021-.004a1.238 1.238 0 0 1-.161-.099.454.454 0 0 1 .119.098c-.147-.005-.298-.001-.443-.012-.009-.045-.013-.088-.019-.136-.308-.129-.672.047-.468.383-.208-.187-.375-.348-.768-.3.109-.006.202.046.3.06l.009.01c-.019.002-.035-.006-.054 0a.34.34 0 0 0-.054.222c.058-.038.139-.049.196-.078.021.355.525.209.774.237.01-.044.021-.088.028-.139.231.165.401.161.49.028.026.006.047.006.068.016.203-.005.392.012.375.225.229.021.299.173.24.403-.198.07-.399.095-.588.002.149.077.228.233.315.34-.362.24-.7-.197-.954.209.209-.025.268.088.415.15a.538.538 0 0 0-.203.611c.331.022.74.072 1.015-.003.006-.062.014-.121.021-.184.292-.018.618-.076.83.129-.119.12-.138.222-.274.286-.031.033-.017.148-.022.187-.056.005-.13-.002-.179.006.259.013.485.066.453.336-.096.021-.15.068-.243.08.147.038.203.155.314.211-.071.414-.613.262-.879.291a.308.308 0 0 0 .105.279c-.124.016-.294.08-.427.066.077.02.156.048.235.067-.117.162-.396.249-.329.529.077-.005.177.024.257.021-.026.07-.002.184-.031.272a.44.44 0 0 0 .375.053c.013-.062-.002-.112.004-.171.45.142 1.089-.437 1.588-.008-.196.122-.445.101-.609.245.087.008.175.014.261.026-.072.08-.088.189-.266.267.266.292.576-.06.878.136-.054.031-.147.102-.183.124.301-.005.751-.051.526.343-.167.309-.491.155-.731.346.035.034.092.06.123.103-.312.553-.606.029-.856-.052-.287-.093-.732-.036-.928.296.08.022.124.055.194.084-.066.06-.129.268-.192.333.019.03.126.187.146.21.137-.143.324-.274.528-.252-.074.094-.086.224-.23.317.225-.043.394-.005.424.199.154-.234.399-.314.637-.194-.003-.321.341-.446.567-.222.093-.268.753-.682.816-.196-.093.012-.161.057-.248.083.135.012.196.056.322.084-.115.038-.303.192-.405.243.238.116.092.093.188.282-.159.014-.306.095-.469.095.338.054.408.396.334.735-.186.125-.309.342-.539.44-.436.187-.539-.257-.667-.222-.343.091-.08.377-.236.52-.085.077-.188.094-.298.102.031.02.051.047.084.063-.042.196-.189.284-.406.297.016.044.075.149.135.267.016.005.036 0 .051.006a.352.352 0 0 0-.035.031l.059.126c.217-.052.44-.068.547.085.145-.259.81-.454 1.108-.45-.127.068-.212.19-.327.269.229-.046.448-.07.651.015-.133.052-.292.202-.392.244.067.023.135.061.198.082-.069.045-.136.163-.248.214.147-.014.236.06.383.075-.038.152.033.247-.051.386.11.015.198.104.329.096.005.126.068.162.094.242.184-.156.41-.316.665-.31.024.05.011.134.021.186l.2-.029c.304.359.063.999-.407.74.154.316-.038.592-.359.575-.07.299-.621.508-.632.05-.044.017-.124.03-.18.053a3.505 3.505 0 0 1-.009-.589 2.147 2.147 0 0 1-.229-.228c-.152.143-.375.182-.53.074.08.067.076.126.123.182-.295.027-.599-.002-.892.029.195.049.236.184.338.333-.189.147-.406.056-.573.171-.153.107-.033.267-.297.376a.168.168 0 0 1 .11.065c-.063.081-.077.183-.096.282.147-.149.407-.275.576-.267.007.059.017.115.021.173.294-.18.73-.516.965-.113a.47.47 0 0 0-.177.213c.203-.082.415-.108.648-.063-.057.06-.136.199-.194.253a1.72 1.72 0 0 0 .527-.118c.086.193.126.294-.042.459.198.015.406-.053.6-.112.067.191.086.237-.049.405.308.06.499.289.396.613-.112-.065-.28-.051-.389-.124.037.227.011.453-.18.416.567.427.176.744-.357.833.807.334-.186.54-.54.493-.301-.037-.889-.302-1.021-.62a.612.612 0 0 0-.257.308c.14.018.088.055.247.025-.235.066-.513.135-.519.393.076.029.113.062.184.099-.166.113-.225.261-.135.454-.241.111-.49.158-.74.21-.01-.105-.098-.158-.077-.309-.086.029-.189.01-.271.033-.008-.05.005-.145-.023-.189-.105.065-.235.095-.331.236-.05.003-1.849.499-1.066-.026-.284.133-.476-.126-.347-.415-.161.005-.357-.037-.518-.024.273-.508-.35-.458-.688-.485-.161-.167-.019-.104-.231-.15.04-.055.07-.09.128-.117-.039-.015-.103.012-.147.007-.107.12-.231.209-.366.318a1.956 1.956 0 0 1-.471-.371c0 .216.004.431.03.64.073.589-.117 1.218.273 1.65.396.442.884.604 1.313 1.025.478.466 1.054.619 1.511 1.113-.292-.016-.462-.122-.724-.19-.282-.073-.571-.011-.847-.077-.644-.163-.657-.72-1.39-.659.012.628.593.734.833 1.195-.288-.302-.942-.142-1.323-.417-.486-.345-.696-.667-1.338-.657-.609.012-.998.207-1.514.511-.355.212-1.019.633-1.366.205.275-.279.716-.329.961-.699-.481-.116-.744.218-1.171.322-.388.09-.93-.008-1.236-.133.398-.308 1.264-.351 1.735-.535a3.3 3.3 0 0 0 .824-.449c.229-.174.231-.412.593-.491.216-.91.165-1.954.146-2.95-.235-.031-.512-.02-.653.035-.038.083-.102.218-.14.317.165.065.219.156.401.166-.094.257-.745.666-.832.139-.127-.056-.358-.1-.476-.124-.03.038-.161.252-.185.311.056.011.121.019.182.023-.185.149-.432.237-.623.396-.084.069-.252.435-.417.489-.415.133-.28-.072-.548-.206-.171-.086-.399-.419-.403.057.066.012.124.004.187.02-.041.638-1.469.415-1.844.657-.023-.042-.015-.124-.021-.17-.147-.031-.177-.082-.275-.15.119-.069.212-.178.387-.194-.077.008-.21-.024-.299-.024-.006-.046.005-.146-.018-.186-.185.036-.244-.035-.411.103-.007-.2-.774-.697-.977-.877.212-.29.604-.025.893-.006-.233-.176-.592-.332-.662-.6a.821.821 0 0 1 .531.116c.005-.063.019-.13.021-.194.176.106.387.229.604.266.03-.053.137-.276.156-.339-.198-.222-.542-.336-.835-.396.002-.007.053-.315.075-.422.31-.043.665-.03.909.184.375-.335.539.252.987.225.828-.052.289-.518-.205-.625.319-.185.667-.206.993-.359-.174-.187-.459-.274-.674-.206-.07-.248-.352-.361-.663-.384.315.349-.014.626-.382.382.038-.066.054-.135.108-.203-.224.099-.478.188-.723.136h-.005a.612.612 0 0 1 .029-.125 3.287 3.287 0 0 1-.789-.153c-.005.012-.002-.182-.002-.185.082-.005.17-.018.254-.025-.217-.085-.471-.148-.532-.391.037.002.143-.001.183-.009-.324-.025-.891-.26-.518-.615.033.022.073.084.108.107.048-.257-.089-.488-.115-.732.061.021.126.038.191.058 0-.605-.293-.863-.046-1.508a.815.815 0 0 1 .427.469c.307-.173.62-.166.531.274.382.026.784.026 1.162 0-.071-.154.018-.182-.159-.324.306-.063.434.182.688.199.226.014.443-.171.716-.153-.005-.357-.39-.393-.681-.276.086-.083.126-.229.198-.319-.142.011-.313.009-.455.056.279-.072.164-.057.245-.268-.165.014-.347-.033-.518-.008.027-.008.037-.025.034-.054a1.446 1.446 0 0 0-.613.067c.04.025.063.079.131.114-.236-.056-.632-.101-.683-.445-.259.079-.604.048-.889.029.002-.079-.03-.179-.023-.255-.299.037-.458-.182-.583-.431.027.004.053.009.081.009-.27-.114-.444-.38-.104-.534zm14.232-7.709c-.03.002-.064.006-.097.011.016-.039.018-.101.025-.154.023.044.042.091.072.143zm12.342 25.346c-3.629 15.67-13.482 27.458-22.469 35.333a93.943 93.943 0 0 1-11.898 8.849 76.153 76.153 0 0 1-3.652 2.146l-.24-49.531 38.949-.253a72.776 72.776 0 0 1-.69 3.456z"/><g fill="#D31F39"><path d="m129.942 48.929-.832 11.647c-.416-.069-.832-.104-1.248-.104h-2.418c-.399 0-.806.034-1.222.104a476.54 476.54 0 0 0 2.964-17.783 683.91 683.91 0 0 0 2.392-17.94c.381.07.736.13 1.066.182a6.716 6.716 0 0 0 2.054 0c.346-.052.71-.111 1.092-.182.936 2.08 1.915 4.195 2.938 6.344 1.022 2.15 2.045 4.29 3.068 6.423a414.35 414.35 0 0 0 3.068 6.266 816.937 816.937 0 0 0 2.938 5.824 345.993 345.993 0 0 0 6.214-12.194 429.202 429.202 0 0 0 5.902-12.662c.866.174 1.612.26 2.236.26.589 0 1.317-.086 2.184-.26l1.118 9.62c.398 3.432.788 6.786 1.17 10.062.381 3.276.762 6.336 1.144 9.179.381 2.843.728 5.131 1.04 6.863a21.274 21.274 0 0 0-2.106-.104H160.466c-.728 0-1.456.034-2.184.104-.174-3.569-.46-7.436-.858-11.596a2175.4 2175.4 0 0 0-1.222-12.376h-.104l-5.824 12.064a1266.066 1266.066 0 0 0-5.668 11.907 5.547 5.547 0 0 0-.494-.077 4.107 4.107 0 0 0-.494-.026c-.174 0-.338.008-.494.026a5.874 5.874 0 0 0-.494.077 3428.307 3428.307 0 0 1-5.59-11.647 914.206 914.206 0 0 0-5.746-11.804h-.104a176.881 176.881 0 0 0-1.248 11.803zM173.049 42.793c0-2.565.476-4.975 1.43-7.229a18.07 18.07 0 0 1 4.03-5.928c1.733-1.698 3.831-3.033 6.292-4.004 2.461-.971 5.2-1.456 8.216-1.456 2.773 0 5.356.382 7.748 1.144 2.392.764 4.472 1.907 6.24 3.433s3.163 3.458 4.186 5.798c1.022 2.34 1.534 5.07 1.534 8.189 0 2.601-.494 5.027-1.482 7.28a18.27 18.27 0 0 1-4.108 5.902c-1.75 1.681-3.84 2.99-6.266 3.926-2.427.936-5.096 1.404-8.008 1.404-2.739 0-5.313-.338-7.722-1.015-2.41-.676-4.507-1.768-6.292-3.275-1.786-1.508-3.198-3.433-4.238-5.772s-1.56-5.138-1.56-8.397zm31.148-1.144c0-2.253-.278-4.271-.832-6.058-.555-1.785-1.326-3.302-2.314-4.55a10.15 10.15 0 0 0-3.588-2.887c-1.404-.676-2.938-1.014-4.602-1.014-1.768 0-3.354.425-4.758 1.274s-2.592 2.002-3.562 3.458c-.971 1.456-1.708 3.163-2.21 5.122-.503 1.958-.754 4.048-.754 6.266 0 2.773.294 5.114.884 7.02.589 1.907 1.386 3.441 2.392 4.603 1.005 1.162 2.166 2.002 3.484 2.521 1.317.521 2.704.78 4.16.78 1.56 0 3.05-.329 4.472-.988 1.421-.658 2.66-1.664 3.718-3.016 1.057-1.352 1.906-3.068 2.548-5.148.641-2.078.962-4.54.962-7.383zM222.241 35.201c0-2.392-.035-4.401-.104-6.031-.07-1.629-.122-3.068-.156-4.316.97.174 1.75.26 2.34.26.589 0 1.369-.086 2.34-.26a3144.46 3144.46 0 0 0 11.206 12.376 1985.97 1985.97 0 0 0 11.362 12.376v-9.567c0-1.698-.009-3.371-.026-5.019-.018-1.646-.035-3.163-.052-4.55a94.861 94.861 0 0 0-.104-3.588c-.052-1.005-.113-1.682-.182-2.028.97.174 1.75.26 2.34.26.589 0 1.369-.086 2.34-.26a602.946 602.946 0 0 0-.416 8.554 711.808 711.808 0 0 0-.26 7.202c-.07 2.254-.113 4.481-.13 6.683a866.11 866.11 0 0 0-.026 7.046v6.239a21.53 21.53 0 0 0-2.132-.104c-.763 0-1.439.034-2.028.104a668.801 668.801 0 0 0-22.724-25.115 168.864 168.864 0 0 0-.104 6.084v6.031c0 2.08.008 3.849.026 5.305.017 1.456.043 2.687.078 3.691.034 1.006.069 1.829.104 2.471.034.642.069 1.152.104 1.533-.416-.069-.832-.104-1.248-.104h-1.196c-.798 0-1.595.034-2.392.104.069-.276.156-1.265.26-2.964.104-1.698.216-3.771.338-6.214.121-2.443.225-5.096.312-7.956.086-2.861.13-5.608.13-8.243zM270.938 30.573c-.018-.832-.061-1.438-.13-1.819-.52 0-1.162.018-1.924.052-.763.035-1.578.078-2.444.13a75.51 75.51 0 0 0-2.652.208 63.99 63.99 0 0 0-2.496.286 26.2 26.2 0 0 0 .182-1.145 8.447 8.447 0 0 0 0-2.288 26.69 26.69 0 0 0-.182-1.145c1.178.035 2.244.07 3.198.104.953.034 1.924.061 2.912.077.988.019 2.062.035 3.224.053 1.161.018 2.556.025 4.186.025 1.629 0 3.024-.008 4.186-.025 1.161-.018 2.227-.034 3.198-.053.97-.017 1.915-.043 2.834-.077.918-.034 1.915-.069 2.99-.104-.07.382-.13.763-.182 1.145a8.469 8.469 0 0 0 0 2.288c.052.383.112.764.182 1.145a48.949 48.949 0 0 0-2.34-.286 68.528 68.528 0 0 0-2.574-.208c-.85-.052-1.656-.095-2.418-.13a44.629 44.629 0 0 0-1.924-.052 5.382 5.382 0 0 0-.078.728c-.018.313-.026.676-.026 1.092v15.757c0 2.877.034 5.434.104 7.67.069 2.235.173 4.429.312 6.577a16.61 16.61 0 0 0-1.924-.104h-4.68c-.694 0-1.335.034-1.924.104.138-2.148.242-4.342.312-6.577a251.5 251.5 0 0 0 .104-7.67v-13a122.53 122.53 0 0 0-.026-2.758zM323.745 56.912a12.636 12.636 0 0 0-.416 2.21c-2.808 1.421-6.344 2.132-10.608 2.132-3.016 0-5.712-.425-8.086-1.274-2.375-.849-4.386-2.045-6.032-3.588a15.436 15.436 0 0 1-3.77-5.486c-.867-2.113-1.3-4.401-1.3-6.863 0-3.605.563-6.664 1.69-9.179 1.126-2.513 2.634-4.558 4.524-6.136 1.889-1.577 4.082-2.729 6.578-3.458 2.496-.728 5.113-1.092 7.852-1.092.901 0 1.854.069 2.86.208 1.005.139 1.976.321 2.912.546.936.226 1.828.494 2.678.806.849.313 1.568.643 2.158.988a16.251 16.251 0 0 0-.807 2.626c-.19.884-.32 1.777-.39 2.678h-.728c-1.318-1.664-2.67-2.851-4.057-3.562-1.387-.71-3.016-1.066-4.888-1.066-1.387 0-2.782.313-4.187.937-1.403.624-2.678 1.577-3.821 2.859-1.144 1.283-2.072 2.921-2.782 4.914-.711 1.994-1.066 4.377-1.066 7.15 0 2.67.364 4.949 1.092 6.838.728 1.89 1.672 3.432 2.834 4.628s2.478 2.072 3.953 2.626a12.52 12.52 0 0 0 4.445.832c.832 0 1.682-.095 2.548-.286.866-.189 1.717-.45 2.549-.779a13.206 13.206 0 0 0 2.365-1.223 10.523 10.523 0 0 0 1.95-1.612l.676.416a25.7 25.7 0 0 0-.726 2.21zM333.521 31.587c-.07-2.236-.175-4.48-.313-6.734.59.07 1.23.13 1.925.182.692.053 1.474.078 2.34.078s1.646-.025 2.34-.078a43.498 43.498 0 0 0 1.925-.182 219.27 219.27 0 0 0-.313 6.734 251.452 251.452 0 0 0-.104 7.67v7.072c0 1.976.008 3.883.025 5.72.018 1.838.043 3.432.078 4.784 1.977 0 3.951-.053 5.928-.156a87.859 87.859 0 0 0 5.979-.521 15.22 15.22 0 0 0-.155 1.04c-.035.313-.053.746-.053 1.301 0 .555.018.987.053 1.3.034.312.086.572.155.779-.936-.034-2.089-.061-3.458-.077-1.369-.019-3.25-.026-5.642-.026H335.989c-.781 0-1.37.008-1.769.026-.398.017-.736.043-1.015.077.139-2.148.242-4.342.313-6.577a251.5 251.5 0 0 0 .104-7.67v-7.072c.002-2.877-.032-5.434-.101-7.67zM391.553 60.577a28.697 28.697 0 0 0-2.365-.104H384.767a23.1 23.1 0 0 0-2.21.104 965.572 965.572 0 0 0-1.716-5.199 164.52 164.52 0 0 0-1.872-5.305 217.642 217.642 0 0 0-6.655-.103 143.226 143.226 0 0 0-5.408.103 108.588 108.588 0 0 0-1.924 5.305 121.658 121.658 0 0 0-1.612 5.199 7.46 7.46 0 0 0-1.222-.104h-2.471c-.416 0-.867.034-1.353.104.416-.9.971-2.148 1.664-3.743a345.594 345.594 0 0 0 2.288-5.408c.832-2.011 1.725-4.168 2.678-6.475a1014.29 1014.29 0 0 0 2.86-6.993c.952-2.357 1.889-4.681 2.808-6.969.919-2.288 1.76-4.42 2.522-6.396.346.069.676.13.987.182.313.052.642.078.987.078s.677-.026.988-.078c.313-.052.641-.112.987-.182 1.108 2.947 2.296 6.102 3.563 9.464a628.636 628.636 0 0 0 3.822 9.906 536.724 536.724 0 0 0 3.743 9.229c1.217 2.913 2.326 5.375 3.332 7.385zm-18.408-25.948a194.4 194.4 0 0 0-2.548 6.162c-.798 2.027-1.578 4.1-2.34 6.214h9.517c-.764-2.114-1.518-4.187-2.263-6.214a235.576 235.576 0 0 0-2.366-6.162zM399.612 31.587c-.07-2.236-.175-4.48-.313-6.734.59.07 1.23.13 1.925.182.692.053 1.474.078 2.341.078.865 0 1.646-.025 2.34-.078a43.59 43.59 0 0 0 1.924-.182 222.486 222.486 0 0 0-.313 6.734 251.452 251.452 0 0 0-.104 7.67v7.072c0 2.877.034 5.434.104 7.67.068 2.235.174 4.429.313 6.577-.59-.069-1.23-.104-1.924-.104h-4.681c-.694 0-1.335.034-1.925.104.14-2.148.242-4.342.313-6.577.068-2.236.104-4.793.104-7.67v-7.072c0-2.877-.034-5.434-.104-7.67zM427.119 44.197v2.133c0 2.877.034 5.434.104 7.67.068 2.235.174 4.429.313 6.577-.59-.069-1.23-.104-1.924-.104h-4.681c-.694 0-1.335.034-1.925.104.139-2.148.242-4.342.313-6.577.068-2.236.104-4.793.104-7.67v-7.072c0-2.877-.034-5.435-.104-7.67-.07-2.236-.175-4.48-.313-6.734.59.07 1.23.13 1.925.182.692.053 1.474.078 2.341.078.936 0 2.002-.043 3.196-.13 1.196-.086 2.679-.13 4.446-.13 1.317 0 2.444.035 3.38.104.938.069 1.742.174 2.418.312a8.585 8.585 0 0 1 1.77.546c.503.227.979.494 1.431.807a8.432 8.432 0 0 1 2.469 2.834c.607 1.127.91 2.47.91 4.029 0 2.531-.693 4.594-2.08 6.188-1.387 1.594-3.38 2.722-5.979 3.38a162.985 162.985 0 0 0 5.355 8.813 1221.05 1221.05 0 0 0 5.719 8.71 27.098 27.098 0 0 0-2.34-.104h-4.705c-.779 0-1.568.034-2.365.104l-9.31-16.38h-.468zm8.216-9.568c0-1.525-.156-2.738-.468-3.641-.313-.9-.789-1.586-1.43-2.054-.644-.468-1.476-.771-2.496-.91-1.023-.138-2.245-.208-3.666-.208-.104 4.715-.156 9.43-.156 14.145.208.034.407.061.598.078s.372.025.546.025c2.288 0 4.039-.615 5.253-1.846 1.213-1.229 1.819-3.093 1.819-5.589zM479.898 27.401c-1.596 0-2.896.469-3.899 1.404-1.006.936-1.509 2.028-1.509 3.276 0 1.282.391 2.331 1.171 3.146.779.815 1.759 1.552 2.938 2.21a48.117 48.117 0 0 0 3.796 1.898 19.85 19.85 0 0 1 3.797 2.235 11.621 11.621 0 0 1 2.938 3.225c.779 1.266 1.17 2.886 1.17 4.861 0 1.734-.33 3.32-.988 4.759a10.458 10.458 0 0 1-2.808 3.691c-1.214 1.023-2.661 1.803-4.342 2.34-1.684.537-3.563.807-5.644.807-1.872 0-3.545-.2-5.018-.599-1.475-.397-2.592-.892-3.354-1.481.348-1.213.643-2.322.885-3.328.241-1.005.449-2.097.624-3.276h.987c.14.764.398 1.482.78 2.158a6.877 6.877 0 0 0 1.456 1.794c.589.521 1.3.928 2.132 1.222.832.295 1.769.442 2.809.442 2.079 0 3.613-.52 4.603-1.56.987-1.04 1.481-2.288 1.481-3.744 0-1.317-.383-2.393-1.145-3.225-.763-.832-1.716-1.567-2.86-2.21a47.443 47.443 0 0 0-3.743-1.872 18.98 18.98 0 0 1-3.743-2.21 11.18 11.18 0 0 1-2.86-3.197c-.763-1.266-1.145-2.887-1.145-4.862 0-1.802.319-3.397.963-4.784.641-1.386 1.499-2.548 2.573-3.483a11.122 11.122 0 0 1 3.719-2.133 13.54 13.54 0 0 1 4.444-.728c1.872 0 3.511.226 4.914.676 1.404.451 2.608 1.075 3.614 1.872a30.471 30.471 0 0 0-.806 2.314c-.228.745-.513 1.689-.858 2.834h-.779c-1.11-2.981-3.208-4.472-6.293-4.472zM505.561 30.573c-.019-.832-.062-1.438-.13-1.819-.521 0-1.162.018-1.925.052-.763.035-1.577.078-2.442.13a75.51 75.51 0 0 0-2.652.208 64.44 64.44 0 0 0-2.496.286c.069-.381.13-.762.183-1.145.053-.381.077-.762.077-1.144 0-.381-.024-.762-.077-1.144s-.112-.763-.183-1.145c1.179.035 2.244.07 3.198.104.953.034 1.924.061 2.912.077.987.019 2.062.035 3.224.053 1.161.018 2.557.025 4.187.025s3.023-.008 4.187-.025c1.161-.018 2.228-.034 3.198-.053.97-.017 1.915-.043 2.834-.077.918-.034 1.915-.069 2.989-.104-.069.382-.13.763-.183 1.145a8.469 8.469 0 0 0 0 2.288c.053.383.112.764.183 1.145a48.949 48.949 0 0 0-2.34-.286 68.818 68.818 0 0 0-2.573-.208c-.852-.052-1.656-.095-2.419-.13a44.629 44.629 0 0 0-1.924-.052 5.224 5.224 0 0 0-.078.728c-.019.313-.025.676-.025 1.092v15.757c0 2.877.034 5.434.104 7.67.068 2.235.173 4.429.313 6.577-.59-.069-1.23-.104-1.924-.104h-4.681c-.694 0-1.335.034-1.925.104.139-2.148.242-4.342.313-6.577.068-2.236.104-4.793.104-7.67v-13a182.82 182.82 0 0 0-.029-2.758zM556.443 60.577a28.702 28.702 0 0 0-2.366-.104h-4.42c-.746 0-1.481.034-2.21.104a966.932 966.932 0 0 0-1.717-5.199 166.946 166.946 0 0 0-1.871-5.305 217.94 217.94 0 0 0-6.656-.103 143.388 143.388 0 0 0-5.408.103 108.588 108.588 0 0 0-1.924 5.305 123.067 123.067 0 0 0-1.611 5.199 7.472 7.472 0 0 0-1.223-.104h-2.471c-.416 0-.866.034-1.353.104.416-.9.971-2.148 1.664-3.743a336.255 336.255 0 0 0 2.288-5.408l2.679-6.475a1014.51 1014.51 0 0 0 2.859-6.993c.953-2.357 1.89-4.681 2.809-6.969.918-2.288 1.759-4.42 2.521-6.396.347.069.676.13.987.182.313.052.642.078.988.078s.676-.026.987-.078c.313-.052.642-.112.987-.182l3.563 9.464a628.636 628.636 0 0 0 3.822 9.906 528.546 528.546 0 0 0 3.744 9.229c1.217 2.913 2.327 5.375 3.332 7.385zm-18.408-25.948a194.4 194.4 0 0 0-2.548 6.162 231.74 231.74 0 0 0-2.341 6.214h9.517c-.763-2.114-1.518-4.187-2.262-6.214a235.576 235.576 0 0 0-2.366-6.162zM566.661 30.573c-.02-.832-.063-1.438-.13-1.819-.521 0-1.162.018-1.925.052-.764.035-1.577.078-2.443.13a75.51 75.51 0 0 0-2.652.208c-.9.087-1.732.182-2.496.286.069-.381.131-.762.184-1.145a8.445 8.445 0 0 0 0-2.288 25.228 25.228 0 0 0-.184-1.145c1.18.035 2.244.07 3.198.104.953.034 1.924.061 2.912.077.988.019 2.063.035 3.224.053s2.558.025 4.188.025c1.629 0 3.022-.008 4.186-.025 1.161-.018 2.229-.034 3.198-.053.97-.017 1.915-.043 2.834-.077.918-.034 1.915-.069 2.99-.104-.07.382-.13.763-.184 1.145a8.467 8.467 0 0 0 0 2.288c.054.383.112.764.184 1.145a49.108 49.108 0 0 0-2.34-.286 68.87 68.87 0 0 0-2.574-.208c-.852-.052-1.656-.095-2.418-.13a44.67 44.67 0 0 0-1.924-.052 5.074 5.074 0 0 0-.078.728c-.02.313-.026.676-.026 1.092v15.757c0 2.877.034 5.434.104 7.67.067 2.235.173 4.429.312 6.577-.59-.069-1.229-.104-1.924-.104h-4.68c-.694 0-1.335.034-1.926.104.14-2.148.242-4.342.313-6.577a251.5 251.5 0 0 0 .104-7.67v-13c0-1.007-.01-1.926-.027-2.758zM591.491 31.587a219.27 219.27 0 0 0-.313-6.734c1.561.035 3.103.087 4.628.156s3.068.104 4.628.104c2.565 0 4.845-.025 6.839-.078 1.992-.052 3.336-.111 4.029-.182-.139.555-.208 1.283-.208 2.185 0 .555.018.987.053 1.3.033.312.086.658.155 1.04A303.309 303.309 0 0 0 608 29.17a973.133 973.133 0 0 1-3.484-.208 137.756 137.756 0 0 0-3.042-.156 59.385 59.385 0 0 0-1.924-.052 88.307 88.307 0 0 0-.233 5.668 590.023 590.023 0 0 0-.025 5.668c2.253-.034 4.29-.086 6.109-.156 1.819-.069 3.718-.156 5.693-.26-.104.59-.174 1.04-.208 1.352a8.909 8.909 0 0 0-.052.988c0 .278.025.563.077.858.053.295.112.72.183 1.273a149.936 149.936 0 0 0-11.804-.468c0 1.109-.01 2.219-.026 3.328a205.124 205.124 0 0 0-.025 3.328c0 2.254.053 4.42.155 6.5 1.977 0 3.952-.053 5.929-.156a87.859 87.859 0 0 0 5.979-.521c-.07.382-.122.729-.156 1.04a12.71 12.71 0 0 0-.052 1.301c0 .555.018.987.052 1.3.034.312.086.572.156.779-.937-.034-2.089-.061-3.458-.077a439.36 439.36 0 0 0-5.643-.026h-8.241c-.781 0-1.37.008-1.769.026-.398.017-.736.043-1.015.077.139-2.148.242-4.342.313-6.577.068-2.236.104-4.793.104-7.67v-7.072c.003-2.877-.032-5.434-.102-7.67z"/></g><g fill="#D31F39"><path d="M134.811 115.18c-1.924-.47-3.597-1.248-5.018-2.342-1.422-1.092-2.54-2.495-3.354-4.212-.815-1.716-1.222-3.804-1.222-6.267 0-1.385.008-2.625.026-3.717.017-1.093.026-2.106.026-3.043s.008-1.836.026-2.703c.017-.867.026-1.77.026-2.705 0-2.808-.018-5.078-.052-6.813-.035-1.732-.087-3.031-.156-3.898.693.068 1.404.129 2.132.182.728.052 1.438.078 2.132.078.693 0 1.404-.026 2.132-.078a76.956 76.956 0 0 0 2.132-.182c-.347 3.362-.555 6.492-.624 9.386a364.76 364.76 0 0 0-.104 8.813c0 3.154.225 5.702.676 7.645.45 1.941 1.118 3.441 2.002 4.498.884 1.058 1.967 1.76 3.25 2.105 1.282.348 2.773.521 4.472.521 2.08 0 3.709-.521 4.888-1.56 1.178-1.041 2.071-2.428 2.678-4.16.606-1.733.979-3.719 1.118-5.955.138-2.235.208-4.566.208-6.994a246.16 246.16 0 0 0-.416-14.298 53.6 53.6 0 0 0 1.404.183 10.488 10.488 0 0 0 2.548 0c.416-.052.849-.112 1.3-.183-.07.764-.139 1.787-.208 3.068a351.395 351.395 0 0 0-.39 10.009 250.894 250.894 0 0 0-.078 6.422c0 6.031-1.3 10.355-3.9 12.974-2.6 2.618-6.414 3.926-11.44 3.926-2.219 0-4.29-.234-6.214-.7zM168.273 83.796c-.07-1.629-.122-3.067-.156-4.315.97.174 1.75.261 2.34.261.589 0 1.369-.087 2.34-.261 3.778 4.194 7.514 8.32 11.206 12.377 3.692 4.056 7.479 8.182 11.362 12.375v-9.567c0-1.698-.009-3.371-.026-5.019-.018-1.646-.035-3.162-.052-4.549a94.856 94.856 0 0 0-.104-3.589c-.052-1.006-.113-1.682-.182-2.028.97.174 1.75.261 2.34.261.589 0 1.369-.087 2.34-.261a602.318 602.318 0 0 0-.416 8.555 711.654 711.654 0 0 0-.26 7.201c-.07 2.255-.113 4.48-.13 6.683a866.63 866.63 0 0 0-.026 7.046v6.24a21.53 21.53 0 0 0-2.132-.104c-.763 0-1.439.033-2.028.104a669.6 669.6 0 0 0-22.724-25.116 169.463 169.463 0 0 0-.104 6.084v6.032c0 2.08.008 3.85.026 5.305.017 1.455.043 2.688.078 3.691.034 1.006.069 1.828.104 2.47.034.644.069 1.153.104 1.534-.416-.069-.832-.104-1.248-.104h-1.196c-.798 0-1.595.033-2.392.104.069-.275.156-1.266.26-2.964s.216-3.771.338-6.214c.121-2.444.225-5.096.312-7.957.086-2.859.13-5.606.13-8.241 0-2.392-.035-4.404-.104-6.034zM210.757 86.214c-.07-2.235-.174-4.479-.312-6.733.589.069 1.23.131 1.924.183.693.052 1.473.078 2.34.078.866 0 1.646-.026 2.34-.078a43.371 43.371 0 0 0 1.924-.183 219.339 219.339 0 0 0-.312 6.733c-.07 2.236-.104 4.793-.104 7.671v7.071c0 2.878.034 5.435.104 7.67.069 2.235.173 4.431.312 6.578a16.61 16.61 0 0 0-1.924-.104h-4.68c-.694 0-1.335.034-1.924.104.138-2.147.242-4.343.312-6.578.069-2.235.104-4.792.104-7.67v-7.071c0-2.878-.034-5.435-.104-7.671zM250.484 92.299a304.31 304.31 0 0 0 4.576-12.818c.866.174 1.629.261 2.288.261.658 0 1.421-.087 2.288-.261-.867 2.047-1.907 4.508-3.12 7.385a873.832 873.832 0 0 0-3.796 9.152 518.872 518.872 0 0 0-3.9 9.828 279.23 279.23 0 0 0-3.432 9.358c-.694-.069-1.456-.104-2.288-.104s-1.595.034-2.288.104c-.52-1.386-1.153-3.067-1.898-5.044-.746-1.977-1.543-4.073-2.392-6.292a429.007 429.007 0 0 0-2.678-6.812c-.936-2.324-1.838-4.567-2.704-6.734a1161.99 1161.99 0 0 0-2.444-6.059 472.61 472.61 0 0 0-1.976-4.783c.797.068 1.586.129 2.366.182a33.648 33.648 0 0 0 4.602 0c.762-.053 1.525-.112 2.288-.182.589 1.94 1.256 3.985 2.002 6.136a755.225 755.225 0 0 0 2.314 6.577c.797 2.236 1.62 4.48 2.47 6.734a737.929 737.929 0 0 1 2.47 6.655 575.207 575.207 0 0 0 5.252-13.283zM266.617 86.214a255.766 255.766 0 0 0-.273-6.733c1.56.035 3.102.088 4.628.156 1.525.069 3.068.104 4.628.104 2.565 0 4.844-.026 6.838-.078 1.993-.052 3.336-.112 4.03-.183-.139.556-.208 1.283-.208 2.185 0 .556.017.987.052 1.3.034.313.086.659.156 1.04a406.902 406.902 0 0 0-3.302-.208 658.158 658.158 0 0 1-3.484-.208 143.684 143.684 0 0 0-3.042-.155 63.51 63.51 0 0 0-1.924-.053 89.107 89.107 0 0 0-.234 5.669 589.83 589.83 0 0 0-.026 5.668c2.253-.034 4.29-.087 6.11-.155 1.82-.069 3.718-.156 5.694-.261a22.62 22.62 0 0 0-.208 1.353 8.883 8.883 0 0 0-.052.988c0 .276.026.563.078.856.052.295.112.72.182 1.274a149.458 149.458 0 0 0-11.804-.469c0 1.109-.009 2.219-.026 3.328a205.091 205.091 0 0 0-.026 3.327c0 2.254.052 4.42.156 6.5 1.976 0 3.952-.052 5.928-.155s3.969-.277 5.98-.521c-.07.382-.122.729-.156 1.04-.035.313-.052.746-.052 1.3 0 .556.017.987.052 1.301.034.312.086.571.156.779-.936-.035-2.089-.062-3.458-.078-1.37-.019-3.25-.024-5.642-.024H269.126c-.78 0-1.37.008-1.768.024-.399.019-.737.043-1.014.078.121-2.147.212-4.343.273-6.578.06-2.235.091-4.792.091-7.67v-7.071c0-2.877-.031-5.434-.091-7.67zM303.212 98.824v2.132c0 2.878.034 5.435.104 7.67.069 2.235.173 4.431.312 6.578a16.61 16.61 0 0 0-1.924-.104h-4.68c-.694 0-1.335.034-1.924.104.138-2.147.242-4.343.312-6.578.069-2.235.104-4.792.104-7.67v-7.071c0-2.878-.035-5.435-.104-7.671-.07-2.235-.174-4.479-.312-6.733.589.069 1.23.131 1.924.183.693.052 1.473.078 2.34.078.936 0 2.002-.043 3.198-.13 1.196-.086 2.678-.131 4.446-.131 1.317 0 2.444.035 3.38.104.937.069 1.742.174 2.418.313a8.497 8.497 0 0 1 1.769.545c.503.227.979.494 1.431.807a8.454 8.454 0 0 1 2.47 2.834c.606 1.127.91 2.471.91 4.03 0 2.53-.693 4.594-2.08 6.188-1.387 1.595-3.38 2.722-5.979 3.38a164.02 164.02 0 0 0 5.355 8.813 1176.46 1176.46 0 0 0 5.721 8.71 27.156 27.156 0 0 0-2.341-.104h-4.705c-.78 0-1.568.033-2.366.104l-9.308-16.38-.471-.001zm7.748-13.208c-.313-.901-.789-1.587-1.431-2.054-.643-.469-1.475-.771-2.496-.91-1.023-.139-2.245-.209-3.666-.209a641.558 641.558 0 0 0-.156 14.145 6.874 6.874 0 0 0 1.144.103c2.288 0 4.038-.614 5.252-1.846 1.213-1.229 1.819-3.095 1.819-5.591.002-1.524-.154-2.734-.466-3.638zM338.623 82.027c-1.595 0-2.896.469-3.899 1.404-1.006.937-1.509 2.027-1.509 3.275 0 1.283.392 2.332 1.171 3.146.779.813 1.759 1.551 2.938 2.209a46.777 46.777 0 0 0 3.796 1.897 19.895 19.895 0 0 1 3.796 2.235 11.592 11.592 0 0 1 2.938 3.225c.779 1.268 1.171 2.887 1.171 4.862 0 1.733-.33 3.319-.988 4.758a10.473 10.473 0 0 1-2.809 3.692c-1.214 1.021-2.66 1.803-4.342 2.34-1.683.537-3.563.806-5.643.806-1.872 0-3.545-.198-5.019-.599-1.475-.397-2.592-.891-3.354-1.48.347-1.214.642-2.322.884-3.328s.45-2.098.624-3.275h.988a6.91 6.91 0 0 0 2.235 3.951c.589.521 1.301.929 2.133 1.223.831.295 1.768.441 2.808.441 2.08 0 3.614-.521 4.603-1.561.987-1.04 1.481-2.288 1.481-3.743 0-1.317-.382-2.394-1.145-3.225-.763-.832-1.716-1.568-2.859-2.21a47.3 47.3 0 0 0-3.744-1.872 19.038 19.038 0 0 1-3.743-2.21 11.183 11.183 0 0 1-2.859-3.198c-.764-1.265-1.146-2.886-1.146-4.86 0-1.804.32-3.397.963-4.785.642-1.386 1.499-2.547 2.573-3.483s2.313-1.646 3.719-2.132a13.515 13.515 0 0 1 4.445-.729c1.872 0 3.51.227 4.914.676 1.403.451 2.607 1.076 3.614 1.873a30.61 30.61 0 0 0-.807 2.313c-.227.746-.513 1.689-.857 2.834h-.78c-1.108-2.977-3.206-4.47-6.291-4.47zM357.968 86.214a219.352 219.352 0 0 0-.313-6.733c.589.069 1.229.131 1.924.183s1.474.078 2.34.078 1.646-.026 2.341-.078a43.516 43.516 0 0 0 1.924-.183c-.14 2.254-.242 4.498-.313 6.733a251.522 251.522 0 0 0-.104 7.671v7.071c0 2.878.034 5.435.104 7.67.069 2.235.173 4.431.313 6.578-.59-.069-1.23-.104-1.924-.104h-4.681c-.694 0-1.335.034-1.924.104.139-2.147.242-4.343.313-6.578.068-2.235.104-4.792.104-7.67v-7.071a258.166 258.166 0 0 0-.104-7.671zM383.577 85.2c-.02-.832-.063-1.438-.13-1.82-.521 0-1.162.019-1.925.054-.764.033-1.577.077-2.443.129-.867.053-1.751.123-2.652.209-.9.086-1.732.182-2.496.285.069-.382.13-.763.184-1.145a8.449 8.449 0 0 0 0-2.29 27.226 27.226 0 0 0-.184-1.145c1.18.035 2.244.069 3.198.104.953.035 1.924.062 2.912.078.988.019 2.062.034 3.224.052 1.161.02 2.558.026 4.188.026 1.629 0 3.022-.009 4.186-.026 1.161-.018 2.229-.033 3.198-.052.97-.017 1.915-.043 2.834-.078.918-.034 1.915-.067 2.99-.104-.07.383-.13.764-.184 1.145a8.482 8.482 0 0 0 0 2.29c.054.382.112.763.184 1.145a48.082 48.082 0 0 0-2.34-.285 71.088 71.088 0 0 0-2.574-.209c-.852-.052-1.656-.096-2.418-.129a43.489 43.489 0 0 0-1.924-.054 5.091 5.091 0 0 0-.078.729c-.02.312-.026.676-.026 1.092v15.756c0 2.878.034 5.436.104 7.67.067 2.236.173 4.43.312 6.578-.59-.069-1.229-.104-1.924-.104h-4.68c-.694 0-1.335.033-1.925.104.139-2.148.241-4.342.313-6.578.069-2.234.104-4.792.104-7.67v-13a150.799 150.799 0 0 0-.028-2.757zM424.475 91.675a77.995 77.995 0 0 0 2.028-3.979c.658-1.385 1.3-2.781 1.924-4.186s1.23-2.746 1.82-4.029c.381.068.771.129 1.17.182a9.497 9.497 0 0 0 2.446 0 59.89 59.89 0 0 0 1.272-.182c-.59.971-1.326 2.244-2.21 3.821a556.846 556.846 0 0 0-5.876 10.765 387.345 387.345 0 0 0-2.782 5.33c0 .832-.018 1.672-.052 2.521a62.602 62.602 0 0 0-.052 2.574c0 1.769.026 3.52.078 5.252.052 1.733.199 3.554.44 5.46-.728-.069-1.465-.104-2.21-.104h-4.42c-.745 0-1.48.033-2.21.104.069-1.594.19-3.225.364-4.889.173-1.664.26-3.328.26-4.991 0-.798-.009-1.603-.024-2.419-.02-.813-.044-1.619-.078-2.418a299.053 299.053 0 0 0-2.99-5.797 2989.713 2989.713 0 0 1-3.276-6.215 470.718 470.718 0 0 0-2.91-5.459 219.455 219.455 0 0 0-1.95-3.537c.797.069 1.577.131 2.34.183a34.371 34.371 0 0 0 4.654 0c.744-.052 1.516-.112 2.313-.183a302.247 302.247 0 0 0 2.002 4.265 523.19 523.19 0 0 0 2.21 4.575 221.906 221.906 0 0 0 2.028 4.057c.624 1.214 1.126 2.115 1.508 2.704h.104a39.768 39.768 0 0 0 2.079-3.405z"/></g></svg>